<svg width="198" height="45" viewBox="0 0 198 45" fill="none" xmlns="http://www.w3.org/2000/svg">
<path d="M10.7375 34.6688V29.1937C10.7375 27.375 12.1625 25.7437 14.1875 25.7437C16.0063 25.7437 17.6375 27.1687 17.6375 29.1937V34.4625C17.6375 38.1187 14.6 41.1563 10.9438 41.1563C7.2875 41.1563 4.25 38.1 4.25 34.4625V22.9125C4.04375 12.375 12.3688 3.84375 22.9063 3.84375C33.4437 3.84375 41.75 12.375 41.75 22.7062V34.2563C41.75 37.9125 38.7125 40.95 35.0563 40.95C31.4 40.95 28.3625 37.9125 28.3625 34.2563V28.9875C28.3625 27.1687 29.7875 25.5375 31.8125 25.5375C33.6313 25.5375 35.2625 26.9625 35.2625 28.9875V34.6688" stroke="#EDA415" stroke-width="2.5" stroke-linecap="round" stroke-linejoin="round"/>
<path d="M65.99 11.6C65.99 10.6387 66.2047 9.78 66.634 9.024C67.0727 8.25867 67.6653 7.666 68.412 7.246C69.168 6.81667 70.0127 6.602 70.946 6.602C72.038 6.602 72.9947 6.882 73.816 7.442C74.6373 8.002 75.2113 8.77667 75.538 9.766H73.284C73.06 9.29933 72.7427 8.94933 72.332 8.716C71.9307 8.48267 71.464 8.366 70.932 8.366C70.3627 8.366 69.854 8.50133 69.406 8.772C68.9673 9.03333 68.622 9.40667 68.37 9.892C68.1273 10.3773 68.006 10.9467 68.006 11.6C68.006 12.244 68.1273 12.8133 68.37 13.308C68.622 13.7933 68.9673 14.1713 69.406 14.442C69.854 14.7033 70.3627 14.834 70.932 14.834C71.464 14.834 71.9307 14.7173 72.332 14.484C72.7427 14.2413 73.06 13.8867 73.284 13.42H75.538C75.2113 14.4187 74.6373 15.198 73.816 15.758C73.004 16.3087 72.0473 16.584 70.946 16.584C70.0127 16.584 69.168 16.374 68.412 15.954C67.6653 15.5247 67.0727 14.932 66.634 14.176C66.2047 13.42 65.99 12.5613 65.99 11.6ZM76.7081 12.594C76.7081 11.81 76.8621 11.1147 77.1701 10.508C77.4874 9.90133 77.9121 9.43467 78.4441 9.108C78.9854 8.78133 79.5874 8.618 80.2501 8.618C80.8288 8.618 81.3328 8.73467 81.7621 8.968C82.2008 9.20133 82.5508 9.49533 82.8121 9.85V8.744H84.7861V16.5H82.8121V15.366C82.5601 15.73 82.2101 16.0333 81.7621 16.276C81.3234 16.5093 80.8148 16.626 80.2361 16.626C79.5828 16.626 78.9854 16.458 78.4441 16.122C77.9121 15.786 77.4874 15.3147 77.1701 14.708C76.8621 14.092 76.7081 13.3873 76.7081 12.594ZM82.8121 12.622C82.8121 12.146 82.7188 11.74 82.5321 11.404C82.3454 11.0587 82.0934 10.7973 81.7761 10.62C81.4588 10.4333 81.1181 10.34 80.7541 10.34C80.3901 10.34 80.0541 10.4287 79.7461 10.606C79.4381 10.7833 79.1861 11.0447 78.9901 11.39C78.8034 11.726 78.7101 12.1273 78.7101 12.594C78.7101 13.0607 78.8034 13.4713 78.9901 13.826C79.1861 14.1713 79.4381 14.4373 79.7461 14.624C80.0634 14.8107 80.3994 14.904 80.7541 14.904C81.1181 14.904 81.4588 14.8153 81.7761 14.638C82.0934 14.4513 82.3454 14.19 82.5321 13.854C82.7188 13.5087 82.8121 13.098 82.8121 12.622ZM88.6604 6.14V16.5H86.7004V6.14H88.6604ZM92.5569 6.14V16.5H90.5969V6.14H92.5569ZM105.151 8.744V16.5H103.177V15.52C102.925 15.856 102.594 16.122 102.183 16.318C101.782 16.5047 101.343 16.598 100.867 16.598C100.261 16.598 99.7239 16.472 99.2573 16.22C98.7906 15.9587 98.4219 15.5807 98.1513 15.086C97.8899 14.582 97.7593 13.9847 97.7593 13.294V8.744H99.7193V13.014C99.7193 13.63 99.8733 14.106 100.181 14.442C100.489 14.7687 100.909 14.932 101.441 14.932C101.983 14.932 102.407 14.7687 102.715 14.442C103.023 14.106 103.177 13.63 103.177 13.014V8.744H105.151ZM110.053 16.626C109.418 16.626 108.849 16.514 108.345 16.29C107.841 16.0567 107.44 15.744 107.141 15.352C106.852 14.96 106.693 14.526 106.665 14.05H108.639C108.676 14.3487 108.821 14.596 109.073 14.792C109.334 14.988 109.656 15.086 110.039 15.086C110.412 15.086 110.702 15.0113 110.907 14.862C111.122 14.7127 111.229 14.5213 111.229 14.288C111.229 14.036 111.098 13.8493 110.837 13.728C110.585 13.5973 110.179 13.4573 109.619 13.308C109.04 13.168 108.564 13.0233 108.191 12.874C107.827 12.7247 107.51 12.496 107.239 12.188C106.978 11.88 106.847 11.4647 106.847 10.942C106.847 10.5127 106.968 10.1207 107.211 9.766C107.463 9.41133 107.818 9.13133 108.275 8.926C108.742 8.72067 109.288 8.618 109.913 8.618C110.837 8.618 111.574 8.85133 112.125 9.318C112.676 9.77533 112.979 10.396 113.035 11.18H111.159C111.131 10.872 111 10.6293 110.767 10.452C110.543 10.2653 110.24 10.172 109.857 10.172C109.502 10.172 109.227 10.2373 109.031 10.368C108.844 10.4987 108.751 10.6807 108.751 10.914C108.751 11.1753 108.882 11.376 109.143 11.516C109.404 11.6467 109.81 11.782 110.361 11.922C110.921 12.062 111.383 12.2067 111.747 12.356C112.111 12.5053 112.424 12.7387 112.685 13.056C112.956 13.364 113.096 13.7747 113.105 14.288C113.105 14.736 112.979 15.1373 112.727 15.492C112.484 15.8467 112.13 16.1267 111.663 16.332C111.206 16.528 110.669 16.626 110.053 16.626ZM118.442 14.288C119.338 13.5413 120.052 12.9207 120.584 12.426C121.116 11.922 121.559 11.3993 121.914 10.858C122.269 10.3167 122.446 9.78467 122.446 9.262C122.446 8.786 122.334 8.41267 122.11 8.142C121.886 7.87133 121.541 7.736 121.074 7.736C120.607 7.736 120.248 7.89467 119.996 8.212C119.744 8.52 119.613 8.94467 119.604 9.486H117.7C117.737 8.366 118.069 7.51667 118.694 6.938C119.329 6.35933 120.131 6.07 121.102 6.07C122.166 6.07 122.983 6.35467 123.552 6.924C124.121 7.484 124.406 8.226 124.406 9.15C124.406 9.878 124.21 10.5733 123.818 11.236C123.426 11.8987 122.978 12.4773 122.474 12.972C121.97 13.4573 121.312 14.0453 120.5 14.736H124.63V16.36H117.714V14.904L118.442 14.288ZM125.781 14.512V12.972L130.359 6.42H132.641V12.804H133.873V14.512H132.641V16.5H130.681V14.512H125.781ZM130.807 8.52L127.937 12.804H130.807V8.52ZM140.595 3.242L136.815 19.034H134.897L138.677 3.242H140.595ZM148.426 7.778L144.702 16.5H142.714L146.466 8.002H141.678V6.322H148.426V7.778ZM154.027 16.598C153.673 16.598 153.379 16.4907 153.145 16.276C152.921 16.052 152.809 15.7767 152.809 15.45C152.809 15.1233 152.921 14.8527 153.145 14.638C153.379 14.414 153.673 14.302 154.027 14.302C154.373 14.302 154.657 14.414 154.881 14.638C155.105 14.8527 155.217 15.1233 155.217 15.45C155.217 15.7767 155.105 16.052 154.881 16.276C154.657 16.4907 154.373 16.598 154.027 16.598ZM154.027 10.802C153.673 10.802 153.379 10.6947 153.145 10.48C152.921 10.256 152.809 9.98067 152.809 9.654C152.809 9.32733 152.921 9.05667 153.145 8.842C153.379 8.618 153.673 8.506 154.027 8.506C154.373 8.506 154.657 8.618 154.881 8.842C155.105 9.05667 155.217 9.32733 155.217 9.654C155.217 9.98067 155.105 10.256 154.881 10.48C154.657 10.6947 154.373 10.802 154.027 10.802ZM69.854 40.258C68.9487 39.3807 68.244 38.2607 67.74 36.898C67.2453 35.5353 66.998 34.0747 66.998 32.516C66.998 30.92 67.2593 29.422 67.782 28.022C68.3047 26.6127 69.0653 25.46 70.064 24.564H72.038V24.746C71.0113 25.726 70.2273 26.902 69.686 28.274C69.154 29.646 68.888 31.06 68.888 32.516C68.888 33.9347 69.14 35.3067 69.644 36.632C70.1573 37.948 70.8853 39.0913 71.828 40.062V40.258H69.854ZM80.5829 33.37H77.9369V36.086H76.0889V33.37H73.4429V31.662H76.0889V28.946H77.9369V31.662H80.5829V33.37ZM87.7625 29.842C87.6692 29.45 87.5058 29.156 87.2725 28.96C87.0485 28.764 86.7218 28.666 86.2925 28.666C85.6485 28.666 85.1725 28.9273 84.8645 29.45C84.5658 29.9633 84.4118 30.8033 84.4025 31.97C84.6265 31.5967 84.9532 31.3073 85.3825 31.102C85.8118 30.8873 86.2785 30.78 86.7825 30.78C87.3892 30.78 87.9258 30.9107 88.3925 31.172C88.8592 31.4333 89.2232 31.816 89.4845 32.32C89.7458 32.8147 89.8765 33.412 89.8765 34.112C89.8765 34.7747 89.7412 35.3673 89.4705 35.89C89.2092 36.4033 88.8218 36.8047 88.3085 37.094C87.7952 37.3833 87.1838 37.528 86.4745 37.528C85.5038 37.528 84.7385 37.3133 84.1785 36.884C83.6278 36.4547 83.2405 35.8573 83.0165 35.092C82.8018 34.3173 82.6945 33.3653 82.6945 32.236C82.6945 30.528 82.9885 29.24 83.5765 28.372C84.1645 27.4947 85.0932 27.056 86.3625 27.056C87.3425 27.056 88.1032 27.322 88.6445 27.854C89.1858 28.386 89.4985 29.0487 89.5825 29.842H87.7625ZM86.3345 32.39C85.8398 32.39 85.4245 32.5347 85.0885 32.824C84.7525 33.1133 84.5845 33.5333 84.5845 34.084C84.5845 34.6347 84.7385 35.0687 85.0465 35.386C85.3638 35.7033 85.8072 35.862 86.3765 35.862C86.8805 35.862 87.2772 35.708 87.5665 35.4C87.8652 35.092 88.0145 34.6767 88.0145 34.154C88.0145 33.6127 87.8698 33.1833 87.5805 32.866C87.3005 32.5487 86.8852 32.39 86.3345 32.39ZM92.0416 35.288C92.9376 34.5413 93.6516 33.9207 94.1836 33.426C94.7156 32.922 95.1589 32.3993 95.5136 31.858C95.8683 31.3167 96.0456 30.7847 96.0456 30.262C96.0456 29.786 95.9336 29.4127 95.7096 29.142C95.4856 28.8713 95.1403 28.736 94.6736 28.736C94.2069 28.736 93.8476 28.8947 93.5956 29.212C93.3436 29.52 93.2129 29.9447 93.2036 30.486H91.2996C91.3369 29.366 91.6683 28.5167 92.2936 27.938C92.9283 27.3593 93.7309 27.07 94.7016 27.07C95.7656 27.07 96.5823 27.3547 97.1516 27.924C97.7209 28.484 98.0056 29.226 98.0056 30.15C98.0056 30.878 97.8096 31.5733 97.4176 32.236C97.0256 32.8987 96.5776 33.4773 96.0736 33.972C95.5696 34.4573 94.9116 35.0453 94.0996 35.736H98.2296V37.36H91.3136V35.904L92.0416 35.288ZM99.1847 40.258V40.062C100.127 39.0913 100.851 37.948 101.355 36.632C101.868 35.3067 102.125 33.9347 102.125 32.516C102.125 31.06 101.854 29.646 101.313 28.274C100.781 26.902 100.001 25.726 98.9747 24.746V24.564H100.949C101.947 25.46 102.708 26.6127 103.231 28.022C103.753 29.422 104.015 30.92 104.015 32.516C104.015 34.0747 103.763 35.5353 103.259 36.898C102.764 38.2607 102.064 39.3807 101.159 40.258H99.1847ZM109.596 32.264C109.596 30.6493 109.885 29.3847 110.464 28.47C111.052 27.5553 112.022 27.098 113.376 27.098C114.729 27.098 115.695 27.5553 116.274 28.47C116.862 29.3847 117.156 30.6493 117.156 32.264C117.156 33.888 116.862 35.162 116.274 36.086C115.695 37.01 114.729 37.472 113.376 37.472C112.022 37.472 111.052 37.01 110.464 36.086C109.885 35.162 109.596 33.888 109.596 32.264ZM115.224 32.264C115.224 31.5733 115.177 30.9947 115.084 30.528C115 30.052 114.822 29.6647 114.552 29.366C114.29 29.0673 113.898 28.918 113.376 28.918C112.853 28.918 112.456 29.0673 112.186 29.366C111.924 29.6647 111.747 30.052 111.654 30.528C111.57 30.9947 111.528 31.5733 111.528 32.264C111.528 32.9733 111.57 33.5707 111.654 34.056C111.738 34.532 111.915 34.9193 112.186 35.218C112.456 35.5073 112.853 35.652 113.376 35.652C113.898 35.652 114.295 35.5073 114.566 35.218C114.836 34.9193 115.014 34.532 115.098 34.056C115.182 33.5707 115.224 32.9733 115.224 32.264ZM118.408 29.1V27.294H121.782V37.5H119.766V29.1H118.408ZM124.335 35.288C125.231 34.5413 125.945 33.9207 126.477 33.426C127.009 32.922 127.452 32.3993 127.807 31.858C128.161 31.3167 128.339 30.7847 128.339 30.262C128.339 29.786 128.227 29.4127 128.003 29.142C127.779 28.8713 127.433 28.736 126.967 28.736C126.5 28.736 126.141 28.8947 125.889 29.212C125.637 29.52 125.506 29.9447 125.497 30.486H123.593C123.63 29.366 123.961 28.5167 124.587 27.938C125.221 27.3593 126.024 27.07 126.995 27.07C128.059 27.07 128.875 27.3547 129.445 27.924C130.014 28.484 130.299 29.226 130.299 30.15C130.299 30.878 130.103 31.5733 129.711 32.236C129.319 32.8987 128.871 33.4773 128.367 33.972C127.863 34.4573 127.205 35.0453 126.393 35.736H130.523V37.36H123.607V35.904L124.335 35.288ZM131.786 29.982C131.832 29.0487 132.159 28.33 132.766 27.826C133.382 27.3127 134.189 27.056 135.188 27.056C135.869 27.056 136.452 27.1773 136.938 27.42C137.423 27.6533 137.787 27.9753 138.03 28.386C138.282 28.7873 138.408 29.2447 138.408 29.758C138.408 30.346 138.254 30.8453 137.946 31.256C137.647 31.6573 137.288 31.928 136.868 32.068V32.124C137.409 32.292 137.829 32.5907 138.128 33.02C138.436 33.4493 138.59 34 138.59 34.672C138.59 35.232 138.459 35.7313 138.198 36.17C137.946 36.6087 137.568 36.954 137.064 37.206C136.569 37.4487 135.972 37.57 135.272 37.57C134.217 37.57 133.358 37.304 132.696 36.772C132.033 36.24 131.683 35.456 131.646 34.42H133.55C133.568 34.8773 133.722 35.246 134.012 35.526C134.31 35.7967 134.716 35.932 135.23 35.932C135.706 35.932 136.07 35.8013 136.322 35.54C136.583 35.2693 136.714 34.924 136.714 34.504C136.714 33.944 136.536 33.5427 136.182 33.3C135.827 33.0573 135.276 32.936 134.53 32.936H134.124V31.326H134.53C135.855 31.326 136.518 30.8827 136.518 29.996C136.518 29.5947 136.396 29.282 136.154 29.058C135.92 28.834 135.58 28.722 135.132 28.722C134.693 28.722 134.352 28.8433 134.11 29.086C133.876 29.3193 133.741 29.618 133.704 29.982H131.786ZM150.334 28.988H145.798V31.382C145.994 31.1393 146.274 30.9433 146.638 30.794C147.002 30.6353 147.39 30.556 147.8 30.556C148.547 30.556 149.158 30.7193 149.634 31.046C150.11 31.3727 150.456 31.7927 150.67 32.306C150.885 32.81 150.992 33.3513 150.992 33.93C150.992 35.0033 150.684 35.8667 150.068 36.52C149.462 37.1733 148.594 37.5 147.464 37.5C146.4 37.5 145.551 37.234 144.916 36.702C144.282 36.17 143.922 35.4747 143.838 34.616H145.742C145.826 34.9893 146.013 35.288 146.302 35.512C146.601 35.736 146.979 35.848 147.436 35.848C147.987 35.848 148.402 35.6753 148.682 35.33C148.962 34.9847 149.102 34.5273 149.102 33.958C149.102 33.3793 148.958 32.9407 148.668 32.642C148.388 32.334 147.973 32.18 147.422 32.18C147.03 32.18 146.704 32.278 146.442 32.474C146.181 32.67 145.994 32.9313 145.882 33.258H144.006V27.266H150.334V28.988ZM157.776 29.842C157.683 29.45 157.52 29.156 157.286 28.96C157.062 28.764 156.736 28.666 156.306 28.666C155.662 28.666 155.186 28.9273 154.878 29.45C154.58 29.9633 154.426 30.8033 154.416 31.97C154.64 31.5967 154.967 31.3073 155.396 31.102C155.826 30.8873 156.292 30.78 156.796 30.78C157.403 30.78 157.94 30.9107 158.406 31.172C158.873 31.4333 159.237 31.816 159.498 32.32C159.76 32.8147 159.89 33.412 159.89 34.112C159.89 34.7747 159.755 35.3673 159.484 35.89C159.223 36.4033 158.836 36.8047 158.322 37.094C157.809 37.3833 157.198 37.528 156.488 37.528C155.518 37.528 154.752 37.3133 154.192 36.884C153.642 36.4547 153.254 35.8573 153.03 35.092C152.816 34.3173 152.708 33.3653 152.708 32.236C152.708 30.528 153.002 29.24 153.59 28.372C154.178 27.4947 155.107 27.056 156.376 27.056C157.356 27.056 158.117 27.322 158.658 27.854C159.2 28.386 159.512 29.0487 159.596 29.842H157.776ZM156.348 32.39C155.854 32.39 155.438 32.5347 155.102 32.824C154.766 33.1133 154.598 33.5333 154.598 34.084C154.598 34.6347 154.752 35.0687 155.06 35.386C155.378 35.7033 155.821 35.862 156.39 35.862C156.894 35.862 157.291 35.708 157.58 35.4C157.879 35.092 158.028 34.6767 158.028 34.154C158.028 33.6127 157.884 33.1833 157.594 32.866C157.314 32.5487 156.899 32.39 156.348 32.39ZM167.935 28.778L164.211 37.5H162.223L165.975 29.002H161.187V27.322H167.935V28.778ZM178.941 28.778L175.217 37.5H173.229L176.981 29.002H172.193V27.322H178.941V28.778ZM181.823 32.096C180.89 31.6107 180.423 30.8593 180.423 29.842C180.423 29.338 180.549 28.8807 180.801 28.47C181.062 28.05 181.45 27.7187 181.963 27.476C182.486 27.224 183.12 27.098 183.867 27.098C184.614 27.098 185.244 27.224 185.757 27.476C186.28 27.7187 186.667 28.05 186.919 28.47C187.18 28.8807 187.311 29.338 187.311 29.842C187.311 30.3553 187.185 30.808 186.933 31.2C186.681 31.5827 186.345 31.8813 185.925 32.096C186.438 32.32 186.84 32.6467 187.129 33.076C187.418 33.5053 187.563 34.014 187.563 34.602C187.563 35.2367 187.4 35.792 187.073 36.268C186.756 36.7347 186.317 37.094 185.757 37.346C185.197 37.598 184.567 37.724 183.867 37.724C183.167 37.724 182.537 37.598 181.977 37.346C181.426 37.094 180.988 36.7347 180.661 36.268C180.344 35.792 180.185 35.2367 180.185 34.602C180.185 34.014 180.33 33.5053 180.619 33.076C180.908 32.6373 181.31 32.3107 181.823 32.096ZM185.407 30.122C185.407 29.6647 185.267 29.31 184.987 29.058C184.716 28.806 184.343 28.68 183.867 28.68C183.4 28.68 183.027 28.806 182.747 29.058C182.476 29.31 182.341 29.6693 182.341 30.136C182.341 30.556 182.481 30.892 182.761 31.144C183.05 31.396 183.419 31.522 183.867 31.522C184.315 31.522 184.684 31.396 184.973 31.144C185.262 30.8827 185.407 30.542 185.407 30.122ZM183.867 32.95C183.335 32.95 182.901 33.0853 182.565 33.356C182.238 33.6267 182.075 34.014 182.075 34.518C182.075 34.9847 182.234 35.3673 182.551 35.666C182.878 35.9553 183.316 36.1 183.867 36.1C184.418 36.1 184.852 35.9507 185.169 35.652C185.486 35.3533 185.645 34.9753 185.645 34.518C185.645 34.0233 185.482 33.6407 185.155 33.37C184.828 33.09 184.399 32.95 183.867 32.95ZM191.379 34.63C191.454 35.0407 191.622 35.358 191.883 35.582C192.154 35.7967 192.513 35.904 192.961 35.904C193.54 35.904 193.96 35.666 194.221 35.19C194.482 34.7047 194.613 33.8927 194.613 32.754C194.398 33.0527 194.095 33.286 193.703 33.454C193.32 33.622 192.905 33.706 192.457 33.706C191.86 33.706 191.318 33.5847 190.833 33.342C190.357 33.09 189.979 32.7213 189.699 32.236C189.419 31.7413 189.279 31.144 189.279 30.444C189.279 29.408 189.587 28.5867 190.203 27.98C190.819 27.364 191.659 27.056 192.723 27.056C194.048 27.056 194.982 27.4807 195.523 28.33C196.074 29.1793 196.349 30.458 196.349 32.166C196.349 33.3793 196.242 34.3733 196.027 35.148C195.822 35.9227 195.462 36.5107 194.949 36.912C194.445 37.3133 193.754 37.514 192.877 37.514C192.186 37.514 191.598 37.3833 191.113 37.122C190.628 36.8513 190.254 36.5013 189.993 36.072C189.741 35.6333 189.596 35.1527 189.559 34.63H191.379ZM192.863 32.11C193.348 32.11 193.731 31.9607 194.011 31.662C194.291 31.3633 194.431 30.962 194.431 30.458C194.431 29.9073 194.282 29.4827 193.983 29.184C193.694 28.876 193.297 28.722 192.793 28.722C192.289 28.722 191.888 28.8807 191.589 29.198C191.3 29.506 191.155 29.9167 191.155 30.43C191.155 30.9247 191.295 31.3307 191.575 31.648C191.864 31.956 192.294 32.11 192.863 32.11Z" fill="#606060"/>
</svg>
