<svg width="106" height="25" viewBox="0 0 106 25" fill="none" xmlns="http://www.w3.org/2000/svg">
<path d="M0.592 12.916C0.592 11.828 0.842667 10.852 1.344 9.988C1.856 9.124 2.544 8.452 3.408 7.972C4.28267 7.48133 5.23733 7.236 6.272 7.236C7.456 7.236 8.50667 7.52933 9.424 8.116C10.352 8.692 11.024 9.51333 11.44 10.58H9.248C8.96 9.99333 8.56 9.556 8.048 9.268C7.536 8.98 6.944 8.836 6.272 8.836C5.536 8.836 4.88 9.00133 4.304 9.332C3.728 9.66267 3.27467 10.1373 2.944 10.756C2.624 11.3747 2.464 12.0947 2.464 12.916C2.464 13.7373 2.624 14.4573 2.944 15.076C3.27467 15.6947 3.728 16.1747 4.304 16.516C4.88 16.8467 5.536 17.012 6.272 17.012C6.944 17.012 7.536 16.868 8.048 16.58C8.56 16.292 8.96 15.8547 9.248 15.268H11.44C11.024 16.3347 10.352 17.156 9.424 17.732C8.50667 18.308 7.456 18.596 6.272 18.596C5.22667 18.596 4.272 18.356 3.408 17.876C2.544 17.3853 1.856 16.708 1.344 15.844C0.842667 14.98 0.592 14.004 0.592 12.916ZM12.967 14.052C12.967 13.1667 13.1483 12.3827 13.511 11.7C13.8843 11.0173 14.3857 10.4893 15.015 10.116C15.655 9.732 16.359 9.54 17.127 9.54C17.8203 9.54 18.423 9.67867 18.935 9.956C19.4577 10.2227 19.8737 10.5587 20.183 10.964V9.684H22.023V18.5H20.183V17.188C19.8737 17.604 19.4523 17.9507 18.919 18.228C18.3857 18.5053 17.7777 18.644 17.095 18.644C16.3377 18.644 15.6443 18.452 15.015 18.068C14.3857 17.6733 13.8843 17.1293 13.511 16.436C13.1483 15.732 12.967 14.9373 12.967 14.052ZM20.183 14.084C20.183 13.476 20.055 12.948 19.799 12.5C19.5537 12.052 19.2283 11.7107 18.823 11.476C18.4177 11.2413 17.9803 11.124 17.511 11.124C17.0417 11.124 16.6043 11.2413 16.199 11.476C15.7937 11.7 15.463 12.036 15.207 12.484C14.9617 12.9213 14.839 13.444 14.839 14.052C14.839 14.66 14.9617 15.1933 15.207 15.652C15.463 16.1107 15.7937 16.4627 16.199 16.708C16.615 16.9427 17.0523 17.06 17.511 17.06C17.9803 17.06 18.4177 16.9427 18.823 16.708C19.2283 16.4733 19.5537 16.132 19.799 15.684C20.055 15.2253 20.183 14.692 20.183 14.084ZM26.5468 11.172V16.052C26.5468 16.3827 26.6214 16.6227 26.7708 16.772C26.9308 16.9107 27.1974 16.98 27.5708 16.98H28.6908V18.5H27.2508C26.4294 18.5 25.8001 18.308 25.3628 17.924C24.9254 17.54 24.7068 16.916 24.7068 16.052V11.172H23.6668V9.684H24.7068V7.492H26.5468V9.684H28.6908V11.172H26.5468ZM29.7639 14.052C29.7639 13.1667 29.9452 12.3827 30.3079 11.7C30.6812 11.0173 31.1825 10.4893 31.8119 10.116C32.4519 9.732 33.1559 9.54 33.9239 9.54C34.6172 9.54 35.2199 9.67867 35.7319 9.956C36.2545 10.2227 36.6705 10.5587 36.9799 10.964V9.684H38.8199V18.5H36.9799V17.188C36.6705 17.604 36.2492 17.9507 35.7159 18.228C35.1825 18.5053 34.5745 18.644 33.8919 18.644C33.1345 18.644 32.4412 18.452 31.8119 18.068C31.1825 17.6733 30.6812 17.1293 30.3079 16.436C29.9452 15.732 29.7639 14.9373 29.7639 14.052ZM36.9799 14.084C36.9799 13.476 36.8519 12.948 36.5959 12.5C36.3505 12.052 36.0252 11.7107 35.6199 11.476C35.2145 11.2413 34.7772 11.124 34.3079 11.124C33.8385 11.124 33.4012 11.2413 32.9959 11.476C32.5905 11.7 32.2599 12.036 32.0039 12.484C31.7585 12.9213 31.6359 13.444 31.6359 14.052C31.6359 14.66 31.7585 15.1933 32.0039 15.652C32.2599 16.1107 32.5905 16.4627 32.9959 16.708C33.4119 16.9427 33.8492 17.06 34.3079 17.06C34.7772 17.06 35.2145 16.9427 35.6199 16.708C36.0252 16.4733 36.3505 16.132 36.5959 15.684C36.8519 15.2253 36.9799 14.692 36.9799 14.084ZM43.0396 6.66V18.5H41.2156V6.66H43.0396ZM49.2584 18.644C48.4264 18.644 47.6744 18.4573 47.0024 18.084C46.3304 17.7 45.8024 17.1667 45.4184 16.484C45.0344 15.7907 44.8424 14.9907 44.8424 14.084C44.8424 13.188 45.0397 12.3933 45.4344 11.7C45.829 11.0067 46.3677 10.4733 47.0504 10.1C47.733 9.72667 48.4957 9.54 49.3384 9.54C50.181 9.54 50.9437 9.72667 51.6264 10.1C52.309 10.4733 52.8477 11.0067 53.2424 11.7C53.637 12.3933 53.8344 13.188 53.8344 14.084C53.8344 14.98 53.6317 15.7747 53.2264 16.468C52.821 17.1613 52.2664 17.7 51.5624 18.084C50.869 18.4573 50.101 18.644 49.2584 18.644ZM49.2584 17.06C49.7277 17.06 50.165 16.948 50.5704 16.724C50.9864 16.5 51.3224 16.164 51.5784 15.716C51.8344 15.268 51.9624 14.724 51.9624 14.084C51.9624 13.444 51.8397 12.9053 51.5944 12.468C51.349 12.02 51.0237 11.684 50.6184 11.46C50.213 11.236 49.7757 11.124 49.3064 11.124C48.837 11.124 48.3997 11.236 47.9944 11.46C47.5997 11.684 47.285 12.02 47.0504 12.468C46.8157 12.9053 46.6984 13.444 46.6984 14.084C46.6984 15.0333 46.9384 15.7693 47.4184 16.292C47.909 16.804 48.5224 17.06 49.2584 17.06ZM59.1895 9.54C59.8722 9.54 60.4748 9.67867 60.9975 9.956C61.5308 10.2227 61.9468 10.5587 62.2455 10.964V9.684H64.0855V18.644C64.0855 19.4547 63.9148 20.1747 63.5735 20.804C63.2322 21.444 62.7362 21.9453 62.0855 22.308C61.4455 22.6707 60.6775 22.852 59.7815 22.852C58.5868 22.852 57.5948 22.5693 56.8055 22.004C56.0162 21.4493 55.5682 20.692 55.4615 19.732H57.2695C57.4082 20.1907 57.7015 20.5587 58.1495 20.836C58.6082 21.124 59.1522 21.268 59.7815 21.268C60.5175 21.268 61.1095 21.044 61.5575 20.596C62.0162 20.148 62.2455 19.4973 62.2455 18.644V17.172C61.9362 17.588 61.5148 17.94 60.9815 18.228C60.4588 18.5053 59.8615 18.644 59.1895 18.644C58.4215 18.644 57.7175 18.452 57.0775 18.068C56.4482 17.6733 55.9468 17.1293 55.5735 16.436C55.2108 15.732 55.0295 14.9373 55.0295 14.052C55.0295 13.1667 55.2108 12.3827 55.5735 11.7C55.9468 11.0173 56.4482 10.4893 57.0775 10.116C57.7175 9.732 58.4215 9.54 59.1895 9.54ZM62.2455 14.084C62.2455 13.476 62.1175 12.948 61.8615 12.5C61.6162 12.052 61.2908 11.7107 60.8855 11.476C60.4802 11.2413 60.0428 11.124 59.5735 11.124C59.1042 11.124 58.6668 11.2413 58.2615 11.476C57.8562 11.7 57.5255 12.036 57.2695 12.484C57.0242 12.9213 56.9015 13.444 56.9015 14.052C56.9015 14.66 57.0242 15.1933 57.2695 15.652C57.5255 16.1107 57.8562 16.4627 58.2615 16.708C58.6775 16.9427 59.1148 17.06 59.5735 17.06C60.0428 17.06 60.4802 16.9427 60.8855 16.708C61.2908 16.4733 61.6162 16.132 61.8615 15.684C62.1175 15.2253 62.2455 14.692 62.2455 14.084Z" fill="#3A3A3A"/>
<path d="M101.92 9.45001L95.4 15.97C94.63 16.74 93.37 16.74 92.6 15.97L86.08 9.45001" stroke="#292D32" stroke-width="1.5" stroke-miterlimit="10" stroke-linecap="round" stroke-linejoin="round"/>
</svg>
