<svg width="338" height="317" viewBox="0 0 338 317" fill="none" xmlns="http://www.w3.org/2000/svg">
<path d="M10.0388 8.72083V19.0549C10.0388 20.4891 9.62407 21.6068 8.79453 22.4082C7.96499 23.1956 6.85425 23.5893 5.46231 23.5893C4.05631 23.5893 2.91745 23.1815 2.04573 22.3661C1.18807 21.5506 0.75924 20.4117 0.75924 18.9495H3.71184C3.7259 19.5822 3.87353 20.0743 4.15473 20.4258C4.44999 20.7773 4.87179 20.953 5.42013 20.953C5.95441 20.953 6.36215 20.7843 6.64335 20.4469C6.92455 20.1094 7.06515 19.6455 7.06515 19.0549V8.72083H10.0388ZM21.8347 15.8914C22.6643 16.0461 23.3462 16.4609 23.8805 17.1357C24.4148 17.8106 24.6819 18.5839 24.6819 19.4556C24.6819 20.243 24.4851 20.939 24.0914 21.5436C23.7118 22.1341 23.1564 22.5981 22.4253 22.9355C21.6941 23.2729 20.8295 23.4417 19.8312 23.4417H13.4831V8.72083H19.557C20.5553 8.72083 21.4129 8.88252 22.13 9.2059C22.8611 9.52928 23.4095 9.9792 23.775 10.5557C24.1546 11.1321 24.3445 11.7859 24.3445 12.517C24.3445 13.3747 24.1125 14.0918 23.6485 14.6682C23.1986 15.2447 22.594 15.6524 21.8347 15.8914ZM16.4357 14.7947H19.1352C19.8382 14.7947 20.3795 14.6401 20.7592 14.3308C21.1388 14.0074 21.3286 13.5504 21.3286 12.9599C21.3286 12.3694 21.1388 11.9124 20.7592 11.5891C20.3795 11.2657 19.8382 11.104 19.1352 11.104H16.4357V14.7947ZM19.4094 21.0374C20.1265 21.0374 20.6818 20.8687 21.0755 20.5312C21.4832 20.1938 21.6871 19.7158 21.6871 19.0971C21.6871 18.4644 21.4762 17.9723 21.0544 17.6208C20.6326 17.2552 20.0632 17.0725 19.3461 17.0725H16.4357V21.0374H19.4094ZM29.9877 21.1007H34.8384V23.4417H27.0351V8.72083H29.9877V21.1007ZM44.693 13.4661C45.0726 12.9037 45.5928 12.4467 46.2537 12.0952C46.9285 11.7437 47.6948 11.568 48.5525 11.568C49.5507 11.568 50.4506 11.814 51.252 12.3061C52.0675 12.7982 52.7072 13.5012 53.1712 14.4151C53.6492 15.315 53.8882 16.3624 53.8882 17.5575C53.8882 18.7526 53.6492 19.8142 53.1712 20.7421C52.7072 21.656 52.0675 22.3661 51.252 22.8722C50.4506 23.3784 49.5507 23.6315 48.5525 23.6315C47.6808 23.6315 46.9145 23.4627 46.2537 23.1253C45.6069 22.7738 45.0867 22.3239 44.693 21.7755V23.4417H41.7404V7.83505H44.693V13.4661ZM50.8724 17.5575C50.8724 16.8545 50.7247 16.25 50.4295 15.7438C50.1483 15.2236 49.7687 14.8299 49.2906 14.5628C48.8266 14.2956 48.3205 14.162 47.7721 14.162C47.2379 14.162 46.7317 14.3026 46.2537 14.5838C45.7897 14.851 45.4101 15.2447 45.1148 15.7649C44.8336 16.2851 44.693 16.8967 44.693 17.5997C44.693 18.3027 44.8336 18.9143 45.1148 19.4346C45.4101 19.9548 45.7897 20.3555 46.2537 20.6367C46.7317 20.9038 47.2379 21.0374 47.7721 21.0374C48.3205 21.0374 48.8266 20.8968 49.2906 20.6156C49.7687 20.3344 50.1483 19.9337 50.4295 19.4135C50.7247 18.8932 50.8724 18.2746 50.8724 17.5575ZM55.2746 17.5575C55.2746 16.3765 55.5066 15.329 55.9706 14.4151C56.4486 13.5012 57.0883 12.7982 57.8897 12.3061C58.7052 11.814 59.6121 11.568 60.6104 11.568C61.4821 11.568 62.2413 11.7437 62.8881 12.0952C63.5489 12.4467 64.0761 12.8896 64.4698 13.4239V11.7578H67.4435V23.4417H64.4698V21.7334C64.0902 22.2817 63.563 22.7387 62.8881 23.1042C62.2273 23.4557 61.461 23.6315 60.5893 23.6315C59.6051 23.6315 58.7052 23.3784 57.8897 22.8722C57.0883 22.3661 56.4486 21.656 55.9706 20.7421C55.5066 19.8142 55.2746 18.7526 55.2746 17.5575ZM64.4698 17.5997C64.4698 16.8827 64.3292 16.2711 64.048 15.7649C63.7668 15.2447 63.3872 14.851 62.9092 14.5838C62.4311 14.3026 61.9179 14.162 61.3696 14.162C60.8213 14.162 60.3151 14.2956 59.8511 14.5628C59.3871 14.8299 59.0075 15.2236 58.7123 15.7438C58.4311 16.25 58.2905 16.8545 58.2905 17.5575C58.2905 18.2605 58.4311 18.8792 58.7123 19.4135C59.0075 19.9337 59.3871 20.3344 59.8511 20.6156C60.3292 20.8968 60.8353 21.0374 61.3696 21.0374C61.9179 21.0374 62.4311 20.9038 62.9092 20.6367C63.3872 20.3555 63.7668 19.9618 64.048 19.4556C64.3292 18.9354 64.4698 18.3168 64.4698 17.5997ZM73.2798 13.5715C73.6595 12.9529 74.1516 12.4678 74.7561 12.1163C75.3748 11.7648 76.0778 11.5891 76.8651 11.5891V14.6893H76.0848C75.1569 14.6893 74.4539 14.9072 73.9758 15.3431C73.5118 15.779 73.2798 16.5382 73.2798 17.6208V23.4417H70.3272V11.7578H73.2798V13.5715ZM84.4697 20.1094C85.8195 18.9846 86.8951 18.0496 87.6965 17.3045C88.4979 16.5452 89.1658 15.7579 89.7001 14.9424C90.2343 14.1269 90.5015 13.3255 90.5015 12.5381C90.5015 11.8211 90.3328 11.2587 89.9953 10.8509C89.6579 10.4432 89.1377 10.2393 88.4347 10.2393C87.7317 10.2393 87.1903 10.4783 86.8107 10.9564C86.4311 11.4204 86.2343 12.0601 86.2202 12.8756H83.352C83.4082 11.1884 83.9073 9.9089 84.8494 9.03718C85.8054 8.16546 87.0146 7.7296 88.4768 7.7296C90.0797 7.7296 91.3099 8.15843 92.1676 9.01609C93.0252 9.85969 93.4541 10.9775 93.4541 12.3694C93.4541 13.4661 93.1588 14.5135 92.5683 15.5118C91.9778 16.5101 91.3029 17.3818 90.5437 18.127C89.7844 18.8581 88.7932 19.7439 87.57 20.7843H93.7915V23.2308H83.3731V21.0374L84.4697 20.1094ZM97.2971 23.5893C96.7628 23.5893 96.3199 23.4276 95.9684 23.1042C95.631 22.7668 95.4622 22.352 95.4622 21.8599C95.4622 21.3678 95.631 20.9601 95.9684 20.6367C96.3199 20.2992 96.7628 20.1305 97.2971 20.1305C97.8173 20.1305 98.2461 20.2992 98.5836 20.6367C98.921 20.9601 99.0897 21.3678 99.0897 21.8599C99.0897 22.352 98.921 22.7668 98.5836 23.1042C98.2461 23.4276 97.8173 23.5893 97.2971 23.5893ZM100.772 10.7876V8.06704H105.855V23.4417H102.818V10.7876H100.772ZM113.375 17.5575C113.375 16.3765 113.607 15.329 114.071 14.4151C114.549 13.5012 115.196 12.7982 116.011 12.3061C116.827 11.814 117.734 11.568 118.732 11.568C119.491 11.568 120.215 11.7367 120.904 12.0741C121.593 12.3975 122.141 12.8334 122.549 13.3817V7.83505H125.544V23.4417H122.549V21.7123C122.184 22.2887 121.67 22.7527 121.01 23.1042C120.349 23.4557 119.583 23.6315 118.711 23.6315C117.727 23.6315 116.827 23.3784 116.011 22.8722C115.196 22.3661 114.549 21.656 114.071 20.7421C113.607 19.8142 113.375 18.7526 113.375 17.5575ZM122.57 17.5997C122.57 16.8827 122.43 16.2711 122.149 15.7649C121.867 15.2447 121.488 14.851 121.01 14.5838C120.532 14.3026 120.018 14.162 119.47 14.162C118.922 14.162 118.416 14.2956 117.952 14.5628C117.488 14.8299 117.108 15.2236 116.813 15.7438C116.532 16.25 116.391 16.8545 116.391 17.5575C116.391 18.2605 116.532 18.8792 116.813 19.4135C117.108 19.9337 117.488 20.3344 117.952 20.6156C118.43 20.8968 118.936 21.0374 119.47 21.0374C120.018 21.0374 120.532 20.9038 121.01 20.6367C121.488 20.3555 121.867 19.9618 122.149 19.4556C122.43 18.9354 122.57 18.3168 122.57 17.5997ZM139.289 17.3466C139.289 17.7684 139.261 18.1481 139.205 18.4855H130.663C130.734 19.3291 131.029 19.9899 131.549 20.468C132.069 20.946 132.709 21.185 133.468 21.185C134.565 21.185 135.345 20.714 135.809 19.772H138.994C138.656 20.8968 138.01 21.8248 137.054 22.5559C136.097 23.2729 134.923 23.6315 133.532 23.6315C132.407 23.6315 131.394 23.3854 130.495 22.8933C129.609 22.3872 128.913 21.6771 128.407 20.7632C127.915 19.8493 127.668 18.7948 127.668 17.5997C127.668 16.3906 127.915 15.329 128.407 14.4151C128.899 13.5012 129.588 12.7982 130.473 12.3061C131.359 11.814 132.379 11.568 133.532 11.568C134.642 11.568 135.633 11.807 136.505 12.285C137.391 12.7631 138.073 13.445 138.551 14.3308C139.043 15.2025 139.289 16.2078 139.289 17.3466ZM136.231 16.503C136.217 15.7438 135.943 15.1392 135.409 14.6893C134.874 14.2253 134.22 13.9933 133.447 13.9933C132.716 13.9933 132.097 14.2183 131.591 14.6682C131.099 15.1041 130.797 15.7157 130.684 16.503H136.231ZM152.306 17.3466C152.306 17.7684 152.277 18.1481 152.221 18.4855H143.68C143.75 19.3291 144.045 19.9899 144.566 20.468C145.086 20.946 145.725 21.185 146.485 21.185C147.581 21.185 148.362 20.714 148.826 19.772H152.01C151.673 20.8968 151.026 21.8248 150.07 22.5559C149.114 23.2729 147.94 23.6315 146.548 23.6315C145.423 23.6315 144.411 23.3854 143.511 22.8933C142.625 22.3872 141.929 21.6771 141.423 20.7632C140.931 19.8493 140.685 18.7948 140.685 17.5997C140.685 16.3906 140.931 15.329 141.423 14.4151C141.915 13.5012 142.604 12.7982 143.49 12.3061C144.376 11.814 145.395 11.568 146.548 11.568C147.659 11.568 148.65 11.807 149.522 12.285C150.407 12.7631 151.089 13.445 151.567 14.3308C152.06 15.2025 152.306 16.2078 152.306 17.3466ZM149.248 16.503C149.233 15.7438 148.959 15.1392 148.425 14.6893C147.891 14.2253 147.237 13.9933 146.464 13.9933C145.733 13.9933 145.114 14.2183 144.608 14.6682C144.116 15.1041 143.813 15.7157 143.701 16.503H149.248ZM157.413 13.445C157.793 12.9107 158.313 12.4678 158.974 12.1163C159.649 11.7508 160.415 11.568 161.273 11.568C162.271 11.568 163.171 11.814 163.972 12.3061C164.788 12.7982 165.427 13.5012 165.891 14.4151C166.37 15.315 166.609 16.3624 166.609 17.5575C166.609 18.7526 166.37 19.8142 165.891 20.7421C165.427 21.656 164.788 22.3661 163.972 22.8722C163.171 23.3784 162.271 23.6315 161.273 23.6315C160.415 23.6315 159.656 23.4557 158.995 23.1042C158.348 22.7527 157.821 22.3098 157.413 21.7755V29.0094H154.461V11.7578H157.413V13.445ZM163.593 17.5575C163.593 16.8545 163.445 16.25 163.15 15.7438C162.869 15.2236 162.489 14.8299 162.011 14.5628C161.547 14.2956 161.041 14.162 160.492 14.162C159.958 14.162 159.452 14.3026 158.974 14.5838C158.51 14.851 158.13 15.2447 157.835 15.7649C157.554 16.2851 157.413 16.8967 157.413 17.5997C157.413 18.3027 157.554 18.9143 157.835 19.4346C158.13 19.9548 158.51 20.3555 158.974 20.6367C159.452 20.9038 159.958 21.0374 160.492 21.0374C161.041 21.0374 161.547 20.8968 162.011 20.6156C162.489 20.3344 162.869 19.9337 163.15 19.4135C163.445 18.8932 163.593 18.2746 163.593 17.5575ZM176.732 13.4661C177.112 12.9037 177.632 12.4467 178.293 12.0952C178.968 11.7437 179.734 11.568 180.592 11.568C181.59 11.568 182.49 11.814 183.291 12.3061C184.107 12.7982 184.746 13.5012 185.21 14.4151C185.688 15.315 185.927 16.3624 185.927 17.5575C185.927 18.7526 185.688 19.8142 185.21 20.7421C184.746 21.656 184.107 22.3661 183.291 22.8722C182.49 23.3784 181.59 23.6315 180.592 23.6315C179.72 23.6315 178.954 23.4627 178.293 23.1253C177.646 22.7738 177.126 22.3239 176.732 21.7755V23.4417H173.779V7.83505H176.732V13.4661ZM182.911 17.5575C182.911 16.8545 182.764 16.25 182.469 15.7438C182.187 15.2236 181.808 14.8299 181.33 14.5628C180.866 14.2956 180.36 14.162 179.811 14.162C179.277 14.162 178.771 14.3026 178.293 14.5838C177.829 14.851 177.449 15.2447 177.154 15.7649C176.873 16.2851 176.732 16.8967 176.732 17.5997C176.732 18.3027 176.873 18.9143 177.154 19.4346C177.449 19.9548 177.829 20.3555 178.293 20.6367C178.771 20.9038 179.277 21.0374 179.811 21.0374C180.36 21.0374 180.866 20.8968 181.33 20.6156C181.808 20.3344 182.187 19.9337 182.469 19.4135C182.764 18.8932 182.911 18.2746 182.911 17.5575ZM187.314 17.5575C187.314 16.3765 187.546 15.329 188.01 14.4151C188.488 13.5012 189.127 12.7982 189.929 12.3061C190.744 11.814 191.651 11.568 192.649 11.568C193.521 11.568 194.28 11.7437 194.927 12.0952C195.588 12.4467 196.115 12.8896 196.509 13.4239V11.7578H199.483V23.4417H196.509V21.7334C196.129 22.2817 195.602 22.7387 194.927 23.1042C194.266 23.4557 193.5 23.6315 192.628 23.6315C191.644 23.6315 190.744 23.3784 189.929 22.8722C189.127 22.3661 188.488 21.656 188.01 20.7421C187.546 19.8142 187.314 18.7526 187.314 17.5575ZM196.509 17.5997C196.509 16.8827 196.368 16.2711 196.087 15.7649C195.806 15.2447 195.426 14.851 194.948 14.5838C194.47 14.3026 193.957 14.162 193.409 14.162C192.86 14.162 192.354 14.2956 191.89 14.5628C191.426 14.8299 191.047 15.2236 190.751 15.7438C190.47 16.25 190.33 16.8545 190.33 17.5575C190.33 18.2605 190.47 18.8792 190.751 19.4135C191.047 19.9337 191.426 20.3344 191.89 20.6156C192.368 20.8968 192.874 21.0374 193.409 21.0374C193.957 21.0374 194.47 20.9038 194.948 20.6367C195.426 20.3555 195.806 19.9618 196.087 19.4556C196.368 18.9354 196.509 18.3168 196.509 17.5997ZM206.837 23.6315C205.881 23.6315 205.024 23.4627 204.264 23.1253C203.505 22.7738 202.901 22.3028 202.451 21.7123C202.015 21.1218 201.776 20.468 201.734 19.7509H204.707C204.764 20.2008 204.981 20.5734 205.361 20.8687C205.755 21.1639 206.24 21.3116 206.816 21.3116C207.379 21.3116 207.815 21.1991 208.124 20.9741C208.447 20.7492 208.609 20.4609 208.609 20.1094C208.609 19.7298 208.412 19.4486 208.018 19.2658C207.639 19.069 207.027 18.8581 206.184 18.6331C205.312 18.4222 204.595 18.2043 204.032 17.9793C203.484 17.7544 203.006 17.4099 202.598 16.9459C202.205 16.4819 202.008 15.8563 202.008 15.0689C202.008 14.4222 202.191 13.8316 202.556 13.2974C202.936 12.7631 203.47 12.3413 204.159 12.032C204.862 11.7226 205.684 11.568 206.626 11.568C208.018 11.568 209.129 11.9195 209.959 12.6225C210.788 13.3114 211.245 14.2464 211.33 15.4274H208.503C208.461 14.9635 208.264 14.5979 207.913 14.3308C207.576 14.0496 207.119 13.909 206.542 13.909C206.008 13.909 205.593 14.0074 205.298 14.2042C205.017 14.4011 204.876 14.6752 204.876 15.0267C204.876 15.4204 205.073 15.7227 205.467 15.9336C205.86 16.1305 206.472 16.3343 207.301 16.5452C208.145 16.7561 208.841 16.9741 209.389 17.199C209.938 17.424 210.409 17.7755 210.802 18.2535C211.21 18.7175 211.421 19.3361 211.435 20.1094C211.435 20.7843 211.245 21.3889 210.866 21.9232C210.5 22.4575 209.966 22.8793 209.263 23.1886C208.574 23.4838 207.765 23.6315 206.837 23.6315ZM218.33 23.6315C217.374 23.6315 216.516 23.4627 215.757 23.1253C214.998 22.7738 214.393 22.3028 213.943 21.7123C213.507 21.1218 213.268 20.468 213.226 19.7509H216.2C216.256 20.2008 216.474 20.5734 216.853 20.8687C217.247 21.1639 217.732 21.3116 218.309 21.3116C218.871 21.3116 219.307 21.1991 219.616 20.9741C219.94 20.7492 220.101 20.4609 220.101 20.1094C220.101 19.7298 219.904 19.4486 219.511 19.2658C219.131 19.069 218.52 18.8581 217.676 18.6331C216.804 18.4222 216.087 18.2043 215.525 17.9793C214.976 17.7544 214.498 17.4099 214.091 16.9459C213.697 16.4819 213.5 15.8563 213.5 15.0689C213.5 14.4222 213.683 13.8316 214.049 13.2974C214.428 12.7631 214.962 12.3413 215.651 12.032C216.354 11.7226 217.177 11.568 218.119 11.568C219.511 11.568 220.622 11.9195 221.451 12.6225C222.281 13.3114 222.738 14.2464 222.822 15.4274H219.996C219.954 14.9635 219.757 14.5979 219.405 14.3308C219.068 14.0496 218.611 13.909 218.035 13.909C217.5 13.909 217.085 14.0074 216.79 14.2042C216.509 14.4011 216.368 14.6752 216.368 15.0267C216.368 15.4204 216.565 15.7227 216.959 15.9336C217.353 16.1305 217.964 16.3343 218.794 16.5452C219.637 16.7561 220.333 16.9741 220.882 17.199C221.43 17.424 221.901 17.7755 222.295 18.2535C222.702 18.7175 222.913 19.3361 222.927 20.1094C222.927 20.7843 222.738 21.3889 222.358 21.9232C221.992 22.4575 221.458 22.8793 220.755 23.1886C220.066 23.4838 219.258 23.6315 218.33 23.6315Z" fill="#003F62"/>
<path d="M9.69223 63.7424C9.69223 64.3349 9.53839 64.8933 9.2307 65.4176C8.9344 65.9304 8.48996 66.3577 7.89737 66.6996C7.31618 67.0301 6.62673 67.2238 5.82901 67.2808V68.6654H4.73501V67.2637C3.59541 67.1611 2.67804 66.8193 1.98289 66.2381C1.28774 65.6455 0.928768 64.8478 0.905976 63.8449H3.47006C3.53843 64.6654 3.96008 65.1611 4.73501 65.3321V62.0672C3.9145 61.862 3.25354 61.6569 2.75212 61.4518C2.25069 61.2466 1.81765 60.9162 1.45298 60.4603C1.08831 60.0045 0.905976 59.3834 0.905976 58.5971C0.905976 57.6056 1.25925 56.7965 1.9658 56.1698C2.68374 55.543 3.60681 55.184 4.73501 55.0928V53.7082H5.82901V55.0928C6.92302 55.184 7.79481 55.5145 8.44438 56.0843C9.10534 56.6541 9.47571 57.4404 9.55548 58.4432H6.9743C6.94012 58.1128 6.82046 57.8279 6.61533 57.5886C6.4216 57.3378 6.1595 57.1612 5.82901 57.0586V60.2894C6.68371 60.5059 7.35607 60.7167 7.84609 60.9219C8.34751 61.1156 8.78056 61.4404 9.14523 61.8962C9.5099 62.3407 9.69223 62.956 9.69223 63.7424ZM3.40168 58.4774C3.40168 58.8535 3.51564 59.1612 3.74356 59.4005C3.97148 59.6284 4.30196 59.8165 4.73501 59.9646V57.0074C4.32475 57.0643 3.99997 57.2182 3.76065 57.4689C3.52134 57.7196 3.40168 58.0558 3.40168 58.4774ZM5.82901 65.3663C6.26206 65.2865 6.59824 65.1099 6.83755 64.8364C7.08826 64.5629 7.21362 64.2324 7.21362 63.8449C7.21362 63.4689 7.09396 63.1669 6.85465 62.9389C6.61533 62.711 6.27345 62.523 5.82901 62.3748V65.3663ZM11.7999 56.9219V54.7168H15.9195V67.1782H13.458V56.9219H11.7999ZM17.993 56.9219V54.7168H22.1127V67.1782H19.6512V56.9219H17.993ZM27.3657 64.6654L25.3657 69.4688H23.8273L24.9384 64.6654H27.3657ZM36.7486 56.5287L32.2017 67.1782H29.7743L34.3555 56.8022H28.5094V54.751H36.7486V56.5287ZM38.182 60.7851C38.182 58.8136 38.5353 57.2695 39.2418 56.1527C39.9598 55.0359 41.1449 54.4775 42.7973 54.4775C44.4497 54.4775 45.6292 55.0359 46.3358 56.1527C47.0537 57.2695 47.4127 58.8136 47.4127 60.7851C47.4127 62.768 47.0537 64.3235 46.3358 65.4517C45.6292 66.5799 44.4497 67.144 42.7973 67.144C41.1449 67.144 39.9598 66.5799 39.2418 65.4517C38.5353 64.3235 38.182 62.768 38.182 60.7851ZM45.0537 60.7851C45.0537 59.9418 44.9967 59.2353 44.8828 58.6655C44.7802 58.0843 44.5637 57.6113 44.2332 57.2467C43.9141 56.882 43.4355 56.6997 42.7973 56.6997C42.1592 56.6997 41.6748 56.882 41.3444 57.2467C41.0253 57.6113 40.8087 58.0843 40.6948 58.6655C40.5922 59.2353 40.5409 59.9418 40.5409 60.7851C40.5409 61.6512 40.5922 62.3805 40.6948 62.9731C40.7974 63.5543 41.0139 64.0273 41.3444 64.3919C41.6748 64.7452 42.1592 64.9218 42.7973 64.9218C43.4355 64.9218 43.9198 64.7452 44.2503 64.3919C44.5808 64.0273 44.7973 63.5543 44.8999 62.9731C45.0024 62.3805 45.0537 61.6512 45.0537 60.7851Z" fill="#4A4A4A"/>
<path d="M8.65318 90.9684L9.95145 93.565C10.1285 93.919 10.6006 94.2731 10.994 94.3321L13.3447 94.7255C14.8495 94.9812 15.2035 96.0631 14.1216 97.145L12.2923 98.9842C11.9874 99.2891 11.8103 99.8891 11.9087 100.322L12.43 102.594C12.8431 104.384 11.889 105.082 10.3055 104.148L8.1024 102.84C7.69915 102.604 7.05002 102.604 6.64677 102.84L4.43381 104.138C2.85031 105.072 1.89628 104.374 2.30937 102.584L2.83064 100.312C2.92899 99.8891 2.75196 99.2891 2.44706 98.9744L0.627517 97.1549C-0.454374 96.073 -0.100301 94.9812 1.40451 94.7354L3.75517 94.3419C4.14858 94.2731 4.62068 93.9289 4.79772 93.5748L6.09598 90.9782C6.7943 89.562 7.95487 89.562 8.65318 90.9684Z" fill="#ACACAC"/>
<path d="M34.2212 90.9684L35.5195 93.565C35.6965 93.919 36.1686 94.2731 36.5621 94.3321L38.9127 94.7255C40.4175 94.9812 40.7716 96.0631 39.6897 97.145L37.8603 98.9842C37.5554 99.2891 37.3784 99.8891 37.4767 100.322L37.998 102.594C38.4111 104.384 37.4571 105.082 35.8736 104.148L33.6705 102.84C33.2672 102.604 32.6181 102.604 32.2148 102.84L30.0019 104.138C28.4184 105.072 27.4643 104.374 27.8774 102.584L28.3987 100.312C28.497 99.8891 28.32 99.2891 28.0151 98.9744L26.1956 97.1549C25.1137 96.073 25.4678 94.9812 26.9726 94.7354L29.3232 94.3419C29.7166 94.2731 30.1887 93.9289 30.3658 93.5748L31.664 90.9782C32.3623 89.562 33.5229 89.562 34.2212 90.9684Z" fill="#ACACAC"/>
<path d="M59.7894 90.9684L61.0876 93.565C61.2647 93.919 61.7368 94.2731 62.1302 94.3321L64.4808 94.7255C65.9856 94.9812 66.3397 96.0631 65.2578 97.145L63.4284 98.9842C63.1235 99.2891 62.9465 99.8891 63.0449 100.322L63.5661 102.594C63.9792 104.384 63.0252 105.082 61.4417 104.148L59.2386 102.84C58.8353 102.604 58.1862 102.604 57.7829 102.84L55.57 104.138C53.9865 105.072 53.0324 104.374 53.4455 102.584L53.9668 100.312C54.0652 99.8891 53.8881 99.2891 53.5832 98.9744L51.7637 97.1549C50.6818 96.073 51.0359 94.9812 52.5407 94.7354L54.8913 94.3419C55.2847 94.2731 55.7568 93.9289 55.9339 93.5748L57.2322 90.9782C57.9305 89.562 59.091 89.562 59.7894 90.9684Z" fill="#ACACAC"/>
<path d="M85.3574 90.9684L86.6557 93.565C86.8327 93.919 87.3048 94.2731 87.6982 94.3321L90.0489 94.7255C91.5537 94.9812 91.9078 96.0631 90.8259 97.145L88.9965 98.9842C88.6916 99.2891 88.5146 99.8891 88.6129 100.322L89.1342 102.594C89.5473 104.384 88.5932 105.082 87.0097 104.148L84.8066 102.84C84.4034 102.604 83.7542 102.604 83.351 102.84L81.138 104.138C79.5545 105.072 78.6005 104.374 79.0136 102.584L79.5349 100.312C79.6332 99.8891 79.4562 99.2891 79.1513 98.9744L77.3317 97.1549C76.2498 96.073 76.6039 94.9812 78.1087 94.7354L80.4594 94.3419C80.8528 94.2731 81.3249 93.9289 81.5019 93.5748L82.8002 90.9782C83.4985 89.562 84.6591 89.562 85.3574 90.9684Z" fill="#ACACAC"/>
<path d="M110.926 90.9684L112.224 93.565C112.401 93.919 112.873 94.2731 113.266 94.3321L115.617 94.7255C117.122 94.9812 117.476 96.0631 116.394 97.145L114.565 98.9842C114.26 99.2891 114.083 99.8891 114.181 100.322L114.702 102.594C115.115 104.384 114.161 105.082 112.578 104.148L110.375 102.84C109.971 102.604 109.322 102.604 108.919 102.84L106.706 104.138C105.123 105.072 104.169 104.374 104.582 102.584L105.103 100.312C105.201 99.8891 105.024 99.2891 104.719 98.9744L102.9 97.1549C101.818 96.073 102.172 94.9812 103.677 94.7354L106.028 94.3419C106.421 94.2731 106.893 93.9289 107.07 93.5748L108.368 90.9782C109.067 89.562 110.227 89.562 110.926 90.9684Z" fill="#ACACAC"/>
<rect y="141.563" width="77" height="78" rx="38.5" fill="#E2F4FF"/>
<path d="M37.3483 175.228H30.4562V178.277C30.7508 177.953 31.1631 177.688 31.6933 177.482C32.2234 177.275 32.7978 177.172 33.4163 177.172C34.5208 177.172 35.4338 177.423 36.1554 177.923C36.8918 178.424 37.4293 179.072 37.768 179.867C38.1067 180.662 38.2761 181.524 38.2761 182.452C38.2761 184.175 37.7901 185.544 36.8182 186.561C35.8462 187.562 34.4766 188.063 32.7094 188.063C31.5313 188.063 30.5078 187.864 29.6389 187.466C28.77 187.054 28.1 186.487 27.6287 185.765C27.1575 185.044 26.8997 184.212 26.8556 183.269H30.5446C30.633 183.726 30.8465 184.109 31.1852 184.418C31.5239 184.712 31.9878 184.86 32.5769 184.86C33.269 184.86 33.7845 184.639 34.1232 184.197C34.4619 183.755 34.6312 183.166 34.6312 182.43C34.6312 181.708 34.4545 181.156 34.1011 180.773C33.7476 180.39 33.2322 180.199 32.5548 180.199C32.0541 180.199 31.6417 180.324 31.3177 180.574C30.9938 180.81 30.7802 181.126 30.6771 181.524H27.0323V171.915H37.3483V175.228ZM50.6551 174.764L45.1105 188.063H41.2448L46.8556 175.184H39.9856V171.959H50.6551V174.764Z" fill="#EDA415"/>
<rect x="87" y="141.563" width="77" height="78" rx="38.5" fill="#E2F4FF"/>
<path d="M117.596 175.449V171.937H123.715V188.063H119.783V175.449H117.596ZM125.902 175.449V171.937H132.021V188.063H128.089V175.449H125.902Z" fill="#EDA415"/>
<rect x="174" y="141.563" width="77" height="78" rx="38.5" fill="#E2F4FF"/>
<path d="M200.127 176.487C200.185 174.912 200.701 173.697 201.673 172.843C202.645 171.988 203.963 171.561 205.627 171.561C206.732 171.561 207.674 171.753 208.455 172.136C209.25 172.519 209.846 173.041 210.244 173.704C210.656 174.367 210.862 175.111 210.862 175.935C210.862 176.907 210.619 177.702 210.133 178.321C209.647 178.925 209.08 179.337 208.432 179.558V179.646C209.272 179.926 209.935 180.39 210.421 181.038C210.907 181.686 211.15 182.518 211.15 183.534C211.15 184.447 210.936 185.257 210.509 185.964C210.097 186.656 209.485 187.201 208.675 187.599C207.88 187.996 206.93 188.195 205.826 188.195C204.059 188.195 202.645 187.761 201.585 186.892C200.539 186.023 199.987 184.712 199.928 182.96H203.595C203.609 183.608 203.794 184.123 204.147 184.506C204.5 184.874 205.016 185.058 205.693 185.058C206.268 185.058 206.709 184.896 207.019 184.572C207.343 184.234 207.505 183.792 207.505 183.247C207.505 182.54 207.276 182.032 206.82 181.723C206.378 181.399 205.664 181.237 204.677 181.237H203.97V178.166H204.677C205.428 178.166 206.032 178.041 206.489 177.791C206.96 177.526 207.195 177.062 207.195 176.399C207.195 175.869 207.048 175.457 206.754 175.162C206.459 174.868 206.054 174.72 205.539 174.72C204.979 174.72 204.559 174.89 204.28 175.228C204.014 175.567 203.86 175.987 203.816 176.487H200.127ZM213.501 176.487C213.56 174.912 214.076 173.697 215.048 172.843C216.02 171.988 217.338 171.561 219.002 171.561C220.106 171.561 221.049 171.753 221.829 172.136C222.625 172.519 223.221 173.041 223.619 173.704C224.031 174.367 224.237 175.111 224.237 175.935C224.237 176.907 223.994 177.702 223.508 178.321C223.022 178.925 222.455 179.337 221.807 179.558V179.646C222.647 179.926 223.309 180.39 223.795 181.038C224.281 181.686 224.524 182.518 224.524 183.534C224.524 184.447 224.311 185.257 223.884 185.964C223.471 186.656 222.86 187.201 222.05 187.599C221.255 187.996 220.305 188.195 219.201 188.195C217.433 188.195 216.02 187.761 214.959 186.892C213.914 186.023 213.361 184.712 213.303 182.96H216.97C216.984 183.608 217.168 184.123 217.522 184.506C217.875 184.874 218.391 185.058 219.068 185.058C219.642 185.058 220.084 184.896 220.393 184.572C220.717 184.234 220.879 183.792 220.879 183.247C220.879 182.54 220.651 182.032 220.195 181.723C219.753 181.399 219.039 181.237 218.052 181.237H217.345V178.166H218.052C218.803 178.166 219.407 178.041 219.863 177.791C220.335 177.526 220.57 177.062 220.57 176.399C220.57 175.869 220.423 175.457 220.128 175.162C219.834 174.868 219.429 174.72 218.913 174.72C218.354 174.72 217.934 174.89 217.654 175.228C217.389 175.567 217.235 175.987 217.19 176.487H213.501Z" fill="#EDA415"/>
<rect x="261" y="141.563" width="77" height="78" rx="38.5" fill="#E2F4FF"/>
<path d="M297.848 175.228H290.956V178.277C291.251 177.953 291.663 177.688 292.193 177.482C292.723 177.275 293.298 177.172 293.916 177.172C295.021 177.172 295.934 177.423 296.655 177.923C297.392 178.424 297.929 179.072 298.268 179.867C298.607 180.662 298.776 181.524 298.776 182.452C298.776 184.175 298.29 185.544 297.318 186.561C296.346 187.562 294.977 188.063 293.209 188.063C292.031 188.063 291.008 187.864 290.139 187.466C289.27 187.054 288.6 186.487 288.129 185.765C287.657 185.044 287.4 184.212 287.356 183.269H291.045C291.133 183.726 291.346 184.109 291.685 184.418C292.024 184.712 292.488 184.86 293.077 184.86C293.769 184.86 294.284 184.639 294.623 184.197C294.962 183.755 295.131 183.166 295.131 182.43C295.131 181.708 294.955 181.156 294.601 180.773C294.248 180.39 293.732 180.199 293.055 180.199C292.554 180.199 292.142 180.324 291.818 180.574C291.494 180.81 291.28 181.126 291.177 181.524H287.532V171.915H297.848V175.228ZM304.926 183.335C305.147 184.499 305.824 185.08 306.958 185.08C307.739 185.08 308.291 184.734 308.615 184.042C308.939 183.35 309.101 182.223 309.101 180.662C308.777 181.119 308.335 181.472 307.775 181.723C307.216 181.973 306.59 182.098 305.898 182.098C304.955 182.098 304.116 181.907 303.379 181.524C302.643 181.126 302.061 180.545 301.634 179.779C301.222 178.998 301.016 178.056 301.016 176.951C301.016 175.862 301.237 174.912 301.679 174.102C302.135 173.292 302.776 172.666 303.6 172.224C304.44 171.782 305.426 171.561 306.56 171.561C308.74 171.561 310.264 172.239 311.133 173.594C312.002 174.949 312.436 176.944 312.436 179.58C312.436 181.495 312.26 183.078 311.906 184.329C311.567 185.566 310.986 186.509 310.161 187.157C309.351 187.805 308.239 188.129 306.825 188.129C305.706 188.129 304.749 187.908 303.954 187.466C303.173 187.024 302.569 186.443 302.142 185.721C301.73 184.999 301.494 184.204 301.436 183.335H304.926ZM306.759 179.116C307.378 179.116 307.871 178.932 308.239 178.564C308.607 178.181 308.791 177.666 308.791 177.018C308.791 176.311 308.6 175.766 308.217 175.383C307.834 175 307.319 174.809 306.671 174.809C306.023 174.809 305.507 175.007 305.125 175.405C304.756 175.788 304.572 176.318 304.572 176.996C304.572 177.629 304.756 178.144 305.125 178.542C305.507 178.925 306.052 179.116 306.759 179.116Z" fill="#EDA415"/>
<rect y="256.562" width="204.576" height="59.9958" rx="19.6707" fill="#87BCD9"/>
<path d="M33.3931 290.467H29.0183L28.2944 292.56H25.9811L29.931 281.56H32.4961L36.446 292.56H34.1169L33.3931 290.467ZM32.7951 288.705L31.2057 284.11L29.6163 288.705H32.7951ZM37.3558 288.17C37.3558 287.289 37.5289 286.507 37.8752 285.825C38.2318 285.143 38.7144 284.619 39.3229 284.251C39.9314 283.884 40.6081 283.701 41.3529 283.701C41.9195 283.701 42.4597 283.826 42.9738 284.078C43.4879 284.32 43.897 284.645 44.2013 285.054V280.915H46.4359V292.56H44.2013V291.27C43.9285 291.7 43.5456 292.046 43.0525 292.309C42.5594 292.571 41.9877 292.702 41.3372 292.702C40.6028 292.702 39.9314 292.513 39.3229 292.135C38.7144 291.758 38.2318 291.228 37.8752 290.546C37.5289 289.854 37.3558 289.062 37.3558 288.17ZM44.217 288.201C44.217 287.666 44.1121 287.21 43.9023 286.832C43.6924 286.444 43.4092 286.15 43.0525 285.951C42.6958 285.741 42.3129 285.636 41.9037 285.636C41.4946 285.636 41.1169 285.736 40.7707 285.935C40.4245 286.135 40.1412 286.428 39.9209 286.816C39.7111 287.194 39.6062 287.645 39.6062 288.17C39.6062 288.694 39.7111 289.156 39.9209 289.555C40.1412 289.943 40.4245 290.242 40.7707 290.452C41.1274 290.661 41.5051 290.766 41.9037 290.766C42.3129 290.766 42.6958 290.667 43.0525 290.467C43.4092 290.258 43.6924 289.964 43.9023 289.586C44.1121 289.198 44.217 288.736 44.217 288.201ZM48.0211 288.17C48.0211 287.289 48.1942 286.507 48.5404 285.825C48.8971 285.143 49.3797 284.619 49.9882 284.251C50.5966 283.884 51.2733 283.701 52.0182 283.701C52.5847 283.701 53.125 283.826 53.639 284.078C54.1531 284.32 54.5623 284.645 54.8665 285.054V280.915H57.1011V292.56H54.8665V291.27C54.5937 291.7 54.2108 292.046 53.7177 292.309C53.2246 292.571 52.6529 292.702 52.0024 292.702C51.2681 292.702 50.5966 292.513 49.9882 292.135C49.3797 291.758 48.8971 291.228 48.5404 290.546C48.1942 289.854 48.0211 289.062 48.0211 288.17ZM54.8822 288.201C54.8822 287.666 54.7773 287.21 54.5675 286.832C54.3577 286.444 54.0744 286.15 53.7177 285.951C53.361 285.741 52.9781 285.636 52.569 285.636C52.1598 285.636 51.7821 285.736 51.4359 285.935C51.0897 286.135 50.8065 286.428 50.5861 286.816C50.3763 287.194 50.2714 287.645 50.2714 288.17C50.2714 288.694 50.3763 289.156 50.5861 289.555C50.8065 289.943 51.0897 290.242 51.4359 290.452C51.7926 290.661 52.1703 290.766 52.569 290.766C52.9781 290.766 53.361 290.667 53.7177 290.467C54.0744 290.258 54.3577 289.964 54.5675 289.586C54.7773 289.198 54.8822 288.736 54.8822 288.201ZM65.5676 285.652V289.869C65.5676 290.163 65.6358 290.378 65.7722 290.515C65.9191 290.64 66.1604 290.703 66.4961 290.703H67.519V292.56H66.1341C64.2772 292.56 63.3488 291.658 63.3488 289.854V285.652H62.3102V283.842H63.3488V281.686H65.5676V283.842H67.519V285.652H65.5676ZM72.9748 292.702C72.1355 292.702 71.3801 292.518 70.7087 292.151C70.0373 291.773 69.5075 291.244 69.1193 290.562C68.7416 289.88 68.5528 289.093 68.5528 288.201C68.5528 287.31 68.7469 286.523 69.135 285.841C69.5337 285.159 70.074 284.634 70.7559 284.267C71.4378 283.889 72.1984 283.701 73.0377 283.701C73.877 283.701 74.6376 283.889 75.3195 284.267C76.0014 284.634 76.5365 285.159 76.9247 285.841C77.3233 286.523 77.5227 287.31 77.5227 288.201C77.5227 289.093 77.3181 289.88 76.9089 290.562C76.5103 291.244 75.9647 291.773 75.2723 292.151C74.5904 292.518 73.8246 292.702 72.9748 292.702ZM72.9748 290.782C73.3734 290.782 73.7459 290.688 74.0921 290.499C74.4488 290.299 74.732 290.006 74.9418 289.618C75.1517 289.229 75.2566 288.757 75.2566 288.201C75.2566 287.372 75.0363 286.738 74.5956 286.297C74.1655 285.846 73.6357 285.62 73.0062 285.62C72.3768 285.62 71.847 285.846 71.4169 286.297C70.9972 286.738 70.7874 287.372 70.7874 288.201C70.7874 289.03 70.992 289.67 71.4011 290.121C71.8208 290.562 72.3453 290.782 72.9748 290.782ZM82.3219 288.201C82.3219 287.299 82.5055 286.512 82.8727 285.841C83.2399 285.159 83.7487 284.634 84.3992 284.267C85.0496 283.889 85.7945 283.701 86.6338 283.701C87.7144 283.701 88.6061 283.973 89.309 284.519C90.0224 285.054 90.4997 285.809 90.741 286.785H88.3648C88.2389 286.407 88.0238 286.114 87.7196 285.904C87.4259 285.683 87.0587 285.573 86.618 285.573C85.9886 285.573 85.4902 285.804 85.1231 286.266C84.7559 286.717 84.5723 287.362 84.5723 288.201C84.5723 289.03 84.7559 289.675 85.1231 290.137C85.4902 290.588 85.9886 290.814 86.618 290.814C87.5098 290.814 88.092 290.415 88.3648 289.618H90.741C90.4997 290.562 90.0224 291.312 89.309 291.868C88.5956 292.424 87.7039 292.702 86.6338 292.702C85.7945 292.702 85.0496 292.518 84.3992 292.151C83.7487 291.773 83.2399 291.249 82.8727 290.577C82.5055 289.896 82.3219 289.103 82.3219 288.201ZM91.7885 288.17C91.7885 287.289 91.9616 286.507 92.3078 285.825C92.6645 285.143 93.1418 284.619 93.7398 284.251C94.3483 283.884 95.025 283.701 95.7699 283.701C96.4203 283.701 96.9868 283.832 97.4694 284.094C97.9625 284.356 98.3559 284.687 98.6497 285.085V283.842H100.869V292.56H98.6497V291.286C98.3664 291.695 97.973 292.036 97.4694 292.309C96.9763 292.571 96.4046 292.702 95.7541 292.702C95.0197 292.702 94.3483 292.513 93.7398 292.135C93.1418 291.758 92.6645 291.228 92.3078 290.546C91.9616 289.854 91.7885 289.062 91.7885 288.17ZM98.6497 288.201C98.6497 287.666 98.5447 287.21 98.3349 286.832C98.1251 286.444 97.8418 286.15 97.4851 285.951C97.1284 285.741 96.7455 285.636 96.3364 285.636C95.9272 285.636 95.5495 285.736 95.2033 285.935C94.8571 286.135 94.5739 286.428 94.3536 286.816C94.1437 287.194 94.0388 287.645 94.0388 288.17C94.0388 288.694 94.1437 289.156 94.3536 289.555C94.5739 289.943 94.8571 290.242 95.2033 290.452C95.56 290.661 95.9377 290.766 96.3364 290.766C96.7455 290.766 97.1284 290.667 97.4851 290.467C97.8418 290.258 98.1251 289.964 98.3349 289.586C98.5447 289.198 98.6497 288.736 98.6497 288.201ZM105.223 285.196C105.507 284.734 105.874 284.372 106.325 284.11C106.787 283.847 107.311 283.716 107.899 283.716V286.03H107.316C106.624 286.03 106.099 286.192 105.743 286.517C105.396 286.843 105.223 287.409 105.223 288.217V292.56H103.02V283.842H105.223V285.196ZM111.948 285.652V289.869C111.948 290.163 112.016 290.378 112.152 290.515C112.299 290.64 112.54 290.703 112.876 290.703H113.899V292.56H112.514C110.657 292.56 109.729 291.658 109.729 289.854V285.652H108.69V283.842H109.729V281.686H111.948V283.842H113.899V285.652H111.948Z" fill="#272727"/>
<rect x="154.415" y="271.315" width="30.4897" height="30.4897" rx="15.2448" fill="#EDA415"/>
<path d="M162.488 279.389H163.736C164.511 279.389 165.12 280.056 165.056 280.823L164.461 287.966C164.36 289.135 165.285 290.139 166.462 290.139H174.099C175.132 290.139 176.036 289.293 176.115 288.267L176.502 282.888C176.588 281.698 175.684 280.73 174.487 280.73H165.228" stroke="white" stroke-width="1.47531" stroke-miterlimit="10" stroke-linecap="round" stroke-linejoin="round"/>
<path d="M172.708 293.732C173.203 293.732 173.605 293.331 173.605 292.835C173.605 292.34 173.203 291.939 172.708 291.939C172.213 291.939 171.812 292.34 171.812 292.835C171.812 293.331 172.213 293.732 172.708 293.732Z" stroke="white" stroke-width="1.47531" stroke-miterlimit="10" stroke-linecap="round" stroke-linejoin="round"/>
<path d="M166.971 293.732C167.466 293.732 167.867 293.331 167.867 292.835C167.867 292.34 167.466 291.939 166.971 291.939C166.476 291.939 166.074 292.34 166.074 292.835C166.074 293.331 166.476 293.732 166.971 293.732Z" stroke="white" stroke-width="1.47531" stroke-miterlimit="10" stroke-linecap="round" stroke-linejoin="round"/>
<path d="M167.509 283.692H176.115" stroke="white" stroke-width="1.47531" stroke-miterlimit="10" stroke-linecap="round" stroke-linejoin="round"/>
<rect x="225.23" y="256.562" width="70.8147" height="59.9958" rx="19.6707" fill="#87BCD9"/>
<path d="M266.126 286.56C266.126 288.508 264.552 290.081 262.604 290.081C260.657 290.081 259.083 288.508 259.083 286.56C259.083 284.613 260.657 283.039 262.604 283.039C264.552 283.039 266.126 284.613 266.126 286.56Z" stroke="#292D32" stroke-width="1.47531" stroke-linecap="round" stroke-linejoin="round"/>
<path d="M262.605 294.694C266.076 294.694 269.312 292.648 271.565 289.108C272.45 287.721 272.45 285.39 271.565 284.003C269.312 280.462 266.076 278.417 262.605 278.417C259.133 278.417 255.897 280.462 253.645 284.003C252.759 285.39 252.759 287.721 253.645 289.108C255.897 292.648 259.133 294.694 262.605 294.694Z" stroke="#292D32" stroke-width="1.47531" stroke-linecap="round" stroke-linejoin="round"/>
</svg>
