<svg width="147" height="24" viewBox="0 0 147 24" fill="none" xmlns="http://www.w3.org/2000/svg">
<path d="M22.1 10.2H12.7V13.9H18.2C18.1 14.8 17.5 16.2 16.2 17.1C15.4 17.7 14.2 18.1 12.7 18.1C10.1 18.1 7.79995 16.4 6.99995 13.9C6.79995 13.3 6.69995 12.6 6.69995 11.9C6.69995 11.2 6.79995 10.5 6.99995 9.9C7.09995 9.7 7.09995 9.5 7.19995 9.4C8.09995 7.3 10.2 5.8 12.7 5.8C14.6 5.8 15.8 6.6 16.6 7.3L19.4 4.5C17.6999 3 15.4 2 12.7 2C8.79995 2 5.39995 4.2 3.79995 7.5C3.09995 8.9 2.69995 10.4 2.69995 12C2.69995 13.6 3.09995 15.1 3.79995 16.5C5.39995 19.8 8.79995 22 12.7 22C15.4 22 17.6999 21.1 19.2999 19.6C21.1999 17.9 22.2999 15.3 22.2999 12.2C22.2999 11.4 22.2 10.8 22.1 10.2Z" stroke="#3B3B3B" stroke-width="1.5" stroke-miterlimit="10" stroke-linecap="round" stroke-linejoin="round"/>
<path d="M75.5 9.3V12.2H78.1C78.3 12.2 78.4 12.4 78.4 12.6L78 14.5C78 14.6 77.8 14.7 77.7 14.7H75.5V22H72.5V14.8H70.8C70.6 14.8 70.5 14.7 70.5 14.5V12.6C70.5 12.4 70.6 12.3 70.8 12.3H72.5V9C72.5 7.3 73.8 6 75.5 6H78.2C78.4 6 78.5 6.1 78.5 6.3V8.7C78.5 8.9 78.4 9 78.2 9H75.8C75.6 9 75.5 9.1 75.5 9.3Z" stroke="#3B3B3B" stroke-width="1.5" stroke-miterlimit="10" stroke-linecap="round"/>
<path d="M76.5 22H70.5C65.5 22 63.5 20 63.5 15V9C63.5 4 65.5 2 70.5 2H76.5C81.5 2 83.5 4 83.5 9V15C83.5 20 81.5 22 76.5 22Z" stroke="#3B3B3B" stroke-width="1.5" stroke-linecap="round" stroke-linejoin="round"/>
<path d="M129.4 20.6C130.9 21.5 132.7 22 134.5 22C140 22 144.5 17.5 144.5 12C144.5 6.5 140 2 134.5 2C129 2 124.5 6.5 124.5 12C124.5 13.8 125 15.5 125.8 17L124.94 20.306C124.746 21.0549 125.439 21.7317 126.183 21.5191L129.4 20.6Z" stroke="#3B3B3B" stroke-width="1.5" stroke-miterlimit="10" stroke-linecap="round" stroke-linejoin="round"/>
<path d="M139 14.8485C139 15.0105 138.964 15.177 138.887 15.339C138.811 15.501 138.712 15.654 138.581 15.798C138.36 16.041 138.117 16.2165 137.842 16.329C137.571 16.4415 137.278 16.5 136.963 16.5C136.503 16.5 136.012 16.392 135.494 16.1715C134.975 15.951 134.457 15.654 133.943 15.2805C133.425 14.9025 132.934 14.484 132.465 14.0205C132.001 13.5525 131.582 13.062 131.208 12.549C130.838 12.036 130.541 11.523 130.324 11.0145C130.108 10.5015 130 10.011 130 9.543C130 9.237 130.054 8.9445 130.162 8.6745C130.27 8.4 130.442 8.148 130.681 7.923C130.969 7.6395 131.284 7.5 131.618 7.5C131.744 7.5 131.87 7.527 131.983 7.581C132.1 7.635 132.204 7.716 132.285 7.833L133.33 9.3045C133.412 9.417 133.47 9.5205 133.511 9.6195C133.551 9.714 133.574 9.8085 133.574 9.894C133.574 10.002 133.542 10.11 133.479 10.2135C133.421 10.317 133.335 10.425 133.227 10.533L132.884 10.8885C132.835 10.938 132.812 10.9965 132.812 11.0685C132.812 11.1045 132.817 11.136 132.826 11.172C132.839 11.208 132.853 11.235 132.862 11.262C132.943 11.4105 133.083 11.604 133.281 11.838C133.484 12.072 133.7 12.3105 133.934 12.549C134.178 12.7875 134.412 13.008 134.651 13.2105C134.885 13.4085 135.079 13.5435 135.232 13.6245C135.255 13.6335 135.282 13.647 135.313 13.6605C135.35 13.674 135.386 13.6785 135.426 13.6785C135.503 13.6785 135.561 13.6515 135.611 13.602L135.953 13.2645C136.066 13.152 136.174 13.0665 136.278 13.0125C136.382 12.9495 136.485 12.918 136.598 12.918C136.684 12.918 136.774 12.936 136.873 12.9765C136.972 13.017 137.076 13.0755 137.188 13.152L138.68 14.2095C138.797 14.2905 138.878 14.385 138.928 14.4975C138.973 14.61 139 14.7225 139 14.8485Z" stroke="#3B3B3B" stroke-width="1.5" stroke-miterlimit="10"/>
</svg>
