<svg width="88" height="25" viewBox="0 0 88 25" fill="none" xmlns="http://www.w3.org/2000/svg">
<path d="M10.08 7.38V18.5H8.256V13.636H3.024V18.5H1.2V7.38H3.024V12.148H8.256V7.38H10.08ZM16.3053 18.644C15.4733 18.644 14.7213 18.4573 14.0493 18.084C13.3773 17.7 12.8493 17.1667 12.4653 16.484C12.0813 15.7907 11.8893 14.9907 11.8893 14.084C11.8893 13.188 12.0866 12.3933 12.4813 11.7C12.8759 11.0067 13.4146 10.4733 14.0973 10.1C14.7799 9.72667 15.5426 9.54 16.3853 9.54C17.2279 9.54 17.9906 9.72667 18.6733 10.1C19.3559 10.4733 19.8946 11.0067 20.2893 11.7C20.6839 12.3933 20.8813 13.188 20.8813 14.084C20.8813 14.98 20.6786 15.7747 20.2733 16.468C19.8679 17.1613 19.3133 17.7 18.6093 18.084C17.9159 18.4573 17.1479 18.644 16.3053 18.644ZM16.3053 17.06C16.7746 17.06 17.2119 16.948 17.6173 16.724C18.0333 16.5 18.3693 16.164 18.6253 15.716C18.8813 15.268 19.0093 14.724 19.0093 14.084C19.0093 13.444 18.8866 12.9053 18.6413 12.468C18.3959 12.02 18.0706 11.684 17.6653 11.46C17.2599 11.236 16.8226 11.124 16.3533 11.124C15.8839 11.124 15.4466 11.236 15.0413 11.46C14.6466 11.684 14.3319 12.02 14.0973 12.468C13.8626 12.9053 13.7453 13.444 13.7453 14.084C13.7453 15.0333 13.9853 15.7693 14.4653 16.292C14.9559 16.804 15.5693 17.06 16.3053 17.06ZM33.3564 9.54C34.0497 9.54 34.6684 9.684 35.2124 9.972C35.767 10.26 36.199 10.6867 36.5084 11.252C36.8284 11.8173 36.9884 12.5 36.9884 13.3V18.5H35.1804V13.572C35.1804 12.7827 34.983 12.18 34.5884 11.764C34.1937 11.3373 33.655 11.124 32.9724 11.124C32.2897 11.124 31.7457 11.3373 31.3404 11.764C30.9457 12.18 30.7484 12.7827 30.7484 13.572V18.5H28.9404V13.572C28.9404 12.7827 28.743 12.18 28.3484 11.764C27.9537 11.3373 27.415 11.124 26.7324 11.124C26.0497 11.124 25.5057 11.3373 25.1004 11.764C24.7057 12.18 24.5084 12.7827 24.5084 13.572V18.5H22.6844V9.684H24.5084V10.692C24.807 10.3293 25.1857 10.0467 25.6444 9.844C26.103 9.64133 26.5937 9.54 27.1164 9.54C27.8204 9.54 28.4497 9.68933 29.0044 9.988C29.559 10.2867 29.9857 10.7187 30.2844 11.284C30.551 10.7507 30.967 10.3293 31.5324 10.02C32.0977 9.7 32.7057 9.54 33.3564 9.54ZM47.3894 13.876C47.3894 14.2067 47.368 14.5053 47.3254 14.772H40.5894C40.6427 15.476 40.904 16.0413 41.3734 16.468C41.8427 16.8947 42.4187 17.108 43.1014 17.108C44.0827 17.108 44.776 16.6973 45.1814 15.876H47.1494C46.8827 16.6867 46.3974 17.3533 45.6934 17.876C45 18.388 44.136 18.644 43.1014 18.644C42.2587 18.644 41.5014 18.4573 40.8294 18.084C40.168 17.7 39.6454 17.1667 39.2614 16.484C38.888 15.7907 38.7014 14.9907 38.7014 14.084C38.7014 13.1773 38.8827 12.3827 39.2454 11.7C39.6187 11.0067 40.136 10.4733 40.7974 10.1C41.4694 9.72667 42.2374 9.54 43.1014 9.54C43.9334 9.54 44.6747 9.72133 45.3254 10.084C45.976 10.4467 46.4827 10.9587 46.8454 11.62C47.208 12.2707 47.3894 13.0227 47.3894 13.876ZM45.4854 13.3C45.4747 12.628 45.2347 12.0893 44.7654 11.684C44.296 11.2787 43.7147 11.076 43.0214 11.076C42.392 11.076 41.8534 11.2787 41.4054 11.684C40.9574 12.0787 40.6907 12.6173 40.6054 13.3H45.4854Z" fill="#3A3A3A"/>
<path d="M83.92 9.45001L77.4 15.97C76.63 16.74 75.37 16.74 74.6 15.97L68.08 9.45001" stroke="#292D32" stroke-width="1.5" stroke-miterlimit="10" stroke-linecap="round" stroke-linejoin="round"/>
</svg>
