<svg width="109" height="24" viewBox="0 0 109 24" fill="none" xmlns="http://www.w3.org/2000/svg">
<path d="M12 13.43C13.7231 13.43 15.12 12.0331 15.12 10.31C15.12 8.58687 13.7231 7.19 12 7.19C10.2769 7.19 8.88 8.58687 8.88 10.31C8.88 12.0331 10.2769 13.43 12 13.43Z" stroke="#292D32" stroke-width="1.5"/>
<path d="M3.62 8.49C5.59 -0.169998 18.42 -0.159997 20.38 8.5C21.53 13.58 18.37 17.88 15.6 20.54C13.59 22.48 10.41 22.48 8.39 20.54C5.63 17.88 2.47 13.57 3.62 8.49Z" stroke="#292D32" stroke-width="1.5"/>
<path d="M49.502 16.598C48.5967 16.598 47.7707 16.388 47.024 15.968C46.2773 15.5387 45.6847 14.946 45.246 14.19C44.8167 13.4247 44.602 12.566 44.602 11.614C44.602 10.662 44.8167 9.808 45.246 9.052C45.6847 8.28667 46.2773 7.694 47.024 7.274C47.7707 6.84467 48.5967 6.63 49.502 6.63C50.4167 6.63 51.2473 6.84467 51.994 7.274C52.7407 7.694 53.3287 8.282 53.758 9.038C54.1873 9.794 54.402 10.6527 54.402 11.614C54.402 12.5753 54.1873 13.434 53.758 14.19C53.3287 14.946 52.7407 15.5387 51.994 15.968C51.2473 16.388 50.4167 16.598 49.502 16.598ZM49.502 15.492C50.1833 15.492 50.7947 15.3333 51.336 15.016C51.8867 14.6987 52.316 14.246 52.624 13.658C52.9413 13.07 53.1 12.3887 53.1 11.614C53.1 10.83 52.9413 10.1487 52.624 9.57C52.316 8.982 51.8913 8.52933 51.35 8.212C50.8087 7.89467 50.1927 7.736 49.502 7.736C48.8113 7.736 48.1953 7.89467 47.654 8.212C47.1127 8.52933 46.6833 8.982 46.366 9.57C46.058 10.1487 45.904 10.83 45.904 11.614C45.904 12.3887 46.058 13.07 46.366 13.658C46.6833 14.246 47.1127 14.6987 47.654 15.016C48.2047 15.3333 48.8207 15.492 49.502 15.492ZM62.8879 8.828V16.5H61.6139V15.366C61.3712 15.758 61.0305 16.066 60.5919 16.29C60.1625 16.5047 59.6865 16.612 59.1639 16.612C58.5665 16.612 58.0299 16.4907 57.5539 16.248C57.0779 15.996 56.6999 15.6227 56.4199 15.128C56.1492 14.6333 56.0139 14.0313 56.0139 13.322V8.828H57.2739V13.154C57.2739 13.91 57.4652 14.4933 57.8479 14.904C58.2305 15.3053 58.7532 15.506 59.4159 15.506C60.0972 15.506 60.6339 15.296 61.0259 14.876C61.4179 14.456 61.6139 13.8447 61.6139 13.042V8.828H62.8879ZM66.3129 10.074C66.5369 9.63533 66.8543 9.29467 67.2649 9.052C67.6849 8.80933 68.1936 8.688 68.7909 8.688V10.004H68.4549C67.0269 10.004 66.3129 10.7787 66.3129 12.328V16.5H65.0389V8.828H66.3129V10.074ZM76.71 16.626C76.122 16.626 75.5947 16.528 75.128 16.332C74.6613 16.1267 74.2927 15.8467 74.022 15.492C73.7513 15.128 73.602 14.7127 73.574 14.246H74.89C74.9273 14.6287 75.1047 14.9413 75.422 15.184C75.7487 15.4267 76.1733 15.548 76.696 15.548C77.1813 15.548 77.564 15.4407 77.844 15.226C78.124 15.0113 78.264 14.7407 78.264 14.414C78.264 14.078 78.1147 13.8307 77.816 13.672C77.5173 13.504 77.0553 13.3407 76.43 13.182C75.8607 13.0327 75.394 12.8833 75.03 12.734C74.6753 12.5753 74.3673 12.3467 74.106 12.048C73.854 11.74 73.728 11.3387 73.728 10.844C73.728 10.452 73.8447 10.0927 74.078 9.766C74.3113 9.43933 74.6427 9.18267 75.072 8.996C75.5013 8.8 75.9913 8.702 76.542 8.702C77.3913 8.702 78.0773 8.91667 78.6 9.346C79.1227 9.77533 79.4027 10.3633 79.44 11.11H78.166C78.138 10.7087 77.9747 10.3867 77.676 10.144C77.3867 9.90133 76.9947 9.78 76.5 9.78C76.0427 9.78 75.6787 9.878 75.408 10.074C75.1373 10.27 75.002 10.5267 75.002 10.844C75.002 11.096 75.0813 11.306 75.24 11.474C75.408 11.6327 75.6133 11.7633 75.856 11.866C76.108 11.9593 76.4533 12.0667 76.892 12.188C77.4427 12.3373 77.8907 12.4867 78.236 12.636C78.5813 12.776 78.8753 12.9907 79.118 13.28C79.37 13.5693 79.5007 13.9473 79.51 14.414C79.51 14.834 79.3933 15.212 79.16 15.548C78.9267 15.884 78.5953 16.15 78.166 16.346C77.746 16.5327 77.2607 16.626 76.71 16.626ZM82.8625 9.878V14.4C82.8625 14.7733 82.9418 15.0393 83.1005 15.198C83.2591 15.3473 83.5345 15.422 83.9265 15.422H84.8645V16.5H83.7165C83.0071 16.5 82.4751 16.3367 82.1205 16.01C81.7658 15.6833 81.5885 15.1467 81.5885 14.4V9.878H80.5945V8.828H81.5885V6.896H82.8625V8.828H84.8645V9.878H82.8625ZM89.7541 16.626C89.0354 16.626 88.3821 16.4627 87.7941 16.136C87.2154 15.8093 86.7581 15.3473 86.4221 14.75C86.0954 14.1433 85.9321 13.4433 85.9321 12.65C85.9321 11.866 86.1001 11.1753 86.4361 10.578C86.7814 9.97133 87.2481 9.50933 87.8361 9.192C88.4241 8.86533 89.0821 8.702 89.8101 8.702C90.5381 8.702 91.1961 8.86533 91.7841 9.192C92.3721 9.50933 92.8341 9.96667 93.1701 10.564C93.5154 11.1613 93.6881 11.8567 93.6881 12.65C93.6881 13.4433 93.5107 14.1433 93.1561 14.75C92.8107 15.3473 92.3394 15.8093 91.7421 16.136C91.1447 16.4627 90.4821 16.626 89.7541 16.626ZM89.7541 15.506C90.2114 15.506 90.6407 15.3987 91.0421 15.184C91.4434 14.9693 91.7654 14.6473 92.0081 14.218C92.2601 13.7887 92.3861 13.266 92.3861 12.65C92.3861 12.034 92.2647 11.5113 92.0221 11.082C91.7794 10.6527 91.4621 10.3353 91.0701 10.13C90.6781 9.91533 90.2534 9.808 89.7961 9.808C89.3294 9.808 88.9001 9.91533 88.5081 10.13C88.1254 10.3353 87.8174 10.6527 87.5841 11.082C87.3507 11.5113 87.2341 12.034 87.2341 12.65C87.2341 13.2753 87.3461 13.8027 87.5701 14.232C87.8034 14.6613 88.1114 14.9833 88.4941 15.198C88.8767 15.4033 89.2967 15.506 89.7541 15.506ZM96.6372 10.074C96.8612 9.63533 97.1785 9.29467 97.5892 9.052C98.0092 8.80933 98.5178 8.688 99.1152 8.688V10.004H98.7792C97.3512 10.004 96.6372 10.7787 96.6372 12.328V16.5H95.3632V8.828H96.6372V10.074ZM107.586 12.37C107.586 12.6127 107.572 12.8693 107.544 13.14H101.412C101.458 13.896 101.715 14.4887 102.182 14.918C102.658 15.338 103.232 15.548 103.904 15.548C104.454 15.548 104.912 15.422 105.276 15.17C105.649 14.9087 105.91 14.5633 106.06 14.134H107.432C107.226 14.8713 106.816 15.4733 106.2 15.94C105.584 16.3973 104.818 16.626 103.904 16.626C103.176 16.626 102.522 16.4627 101.944 16.136C101.374 15.8093 100.926 15.3473 100.6 14.75C100.273 14.1433 100.11 13.4433 100.11 12.65C100.11 11.8567 100.268 11.1613 100.586 10.564C100.903 9.96667 101.346 9.50933 101.916 9.192C102.494 8.86533 103.157 8.702 103.904 8.702C104.632 8.702 105.276 8.86067 105.836 9.178C106.396 9.49533 106.825 9.934 107.124 10.494C107.432 11.0447 107.586 11.67 107.586 12.37ZM106.27 12.104C106.27 11.6187 106.162 11.2033 105.948 10.858C105.733 10.5033 105.439 10.2373 105.066 10.06C104.702 9.87333 104.296 9.78 103.848 9.78C103.204 9.78 102.653 9.98533 102.196 10.396C101.748 10.8067 101.491 11.376 101.426 12.104H106.27Z" fill="#292D32"/>
</svg>
