<svg width="90" height="25" viewBox="0 0 90 25" fill="none" xmlns="http://www.w3.org/2000/svg">
<path d="M8.976 10.692C8.976 11.2573 8.84267 11.7907 8.576 12.292C8.30933 12.7933 7.88267 13.204 7.296 13.524C6.70933 13.8333 5.95733 13.988 5.04 13.988H3.024V18.5H1.2V7.38H5.04C5.89333 7.38 6.61333 7.52933 7.2 7.828C7.79733 8.116 8.24 8.51067 8.528 9.012C8.82667 9.51333 8.976 10.0733 8.976 10.692ZM5.04 12.5C5.73333 12.5 6.25067 12.3453 6.592 12.036C6.93333 11.716 7.104 11.268 7.104 10.692C7.104 9.476 6.416 8.868 5.04 8.868H3.024V12.5H5.04ZM10.1076 14.052C10.1076 13.1667 10.289 12.3827 10.6516 11.7C11.025 11.0173 11.5263 10.4893 12.1556 10.116C12.7956 9.732 13.4996 9.54 14.2676 9.54C14.961 9.54 15.5636 9.67867 16.0756 9.956C16.5983 10.2227 17.0143 10.5587 17.3236 10.964V9.684H19.1636V18.5H17.3236V17.188C17.0143 17.604 16.593 17.9507 16.0596 18.228C15.5263 18.5053 14.9183 18.644 14.2356 18.644C13.4783 18.644 12.785 18.452 12.1556 18.068C11.5263 17.6733 11.025 17.1293 10.6516 16.436C10.289 15.732 10.1076 14.9373 10.1076 14.052ZM17.3236 14.084C17.3236 13.476 17.1956 12.948 16.9396 12.5C16.6943 12.052 16.369 11.7107 15.9636 11.476C15.5583 11.2413 15.121 11.124 14.6516 11.124C14.1823 11.124 13.745 11.2413 13.3396 11.476C12.9343 11.7 12.6036 12.036 12.3476 12.484C12.1023 12.9213 11.9796 13.444 11.9796 14.052C11.9796 14.66 12.1023 15.1933 12.3476 15.652C12.6036 16.1107 12.9343 16.4627 13.3396 16.708C13.7556 16.9427 14.193 17.06 14.6516 17.06C15.121 17.06 15.5583 16.9427 15.9636 16.708C16.369 16.4733 16.6943 16.132 16.9396 15.684C17.1956 15.2253 17.3236 14.692 17.3236 14.084ZM25.1114 9.54C25.794 9.54 26.3967 9.67867 26.9194 9.956C27.4527 10.2227 27.8687 10.5587 28.1674 10.964V9.684H30.0074V18.644C30.0074 19.4547 29.8367 20.1747 29.4954 20.804C29.154 21.444 28.658 21.9453 28.0074 22.308C27.3674 22.6707 26.5994 22.852 25.7034 22.852C24.5087 22.852 23.5167 22.5693 22.7274 22.004C21.938 21.4493 21.49 20.692 21.3834 19.732H23.1914C23.33 20.1907 23.6234 20.5587 24.0714 20.836C24.53 21.124 25.074 21.268 25.7034 21.268C26.4394 21.268 27.0314 21.044 27.4794 20.596C27.938 20.148 28.1674 19.4973 28.1674 18.644V17.172C27.858 17.588 27.4367 17.94 26.9034 18.228C26.3807 18.5053 25.7834 18.644 25.1114 18.644C24.3434 18.644 23.6394 18.452 22.9994 18.068C22.37 17.6733 21.8687 17.1293 21.4954 16.436C21.1327 15.732 20.9514 14.9373 20.9514 14.052C20.9514 13.1667 21.1327 12.3827 21.4954 11.7C21.8687 11.0173 22.37 10.4893 22.9994 10.116C23.6394 9.732 24.3434 9.54 25.1114 9.54ZM28.1674 14.084C28.1674 13.476 28.0394 12.948 27.7834 12.5C27.538 12.052 27.2127 11.7107 26.8074 11.476C26.402 11.2413 25.9647 11.124 25.4954 11.124C25.026 11.124 24.5887 11.2413 24.1834 11.476C23.778 11.7 23.4474 12.036 23.1914 12.484C22.946 12.9213 22.8234 13.444 22.8234 14.052C22.8234 14.66 22.946 15.1933 23.1914 15.652C23.4474 16.1107 23.778 16.4627 24.1834 16.708C24.5994 16.9427 25.0367 17.06 25.4954 17.06C25.9647 17.06 26.402 16.9427 26.8074 16.708C27.2127 16.4733 27.538 16.132 27.7834 15.684C28.0394 15.2253 28.1674 14.692 28.1674 14.084ZM40.4831 13.876C40.4831 14.2067 40.4618 14.5053 40.4191 14.772H33.6831C33.7365 15.476 33.9978 16.0413 34.4671 16.468C34.9365 16.8947 35.5125 17.108 36.1951 17.108C37.1765 17.108 37.8698 16.6973 38.2751 15.876H40.2431C39.9765 16.6867 39.4911 17.3533 38.7871 17.876C38.0938 18.388 37.2298 18.644 36.1951 18.644C35.3525 18.644 34.5951 18.4573 33.9231 18.084C33.2618 17.7 32.7391 17.1667 32.3551 16.484C31.9818 15.7907 31.7951 14.9907 31.7951 14.084C31.7951 13.1773 31.9765 12.3827 32.3391 11.7C32.7125 11.0067 33.2298 10.4733 33.8911 10.1C34.5631 9.72667 35.3311 9.54 36.1951 9.54C37.0271 9.54 37.7685 9.72133 38.4191 10.084C39.0698 10.4467 39.5765 10.9587 39.9391 11.62C40.3018 12.2707 40.4831 13.0227 40.4831 13.876ZM38.5791 13.3C38.5685 12.628 38.3285 12.0893 37.8591 11.684C37.3898 11.2787 36.8085 11.076 36.1151 11.076C35.4858 11.076 34.9471 11.2787 34.4991 11.684C34.0511 12.0787 33.7845 12.6173 33.6991 13.3H38.5791ZM45.4781 18.644C44.7848 18.644 44.1608 18.5213 43.6061 18.276C43.0621 18.02 42.6301 17.6787 42.3101 17.252C41.9901 16.8147 41.8195 16.3293 41.7981 15.796H43.6861C43.7181 16.1693 43.8941 16.484 44.2141 16.74C44.5448 16.9853 44.9555 17.108 45.4461 17.108C45.9581 17.108 46.3528 17.012 46.6301 16.82C46.9181 16.6173 47.0621 16.3613 47.0621 16.052C47.0621 15.7213 46.9021 15.476 46.5821 15.316C46.2728 15.156 45.7768 14.98 45.0941 14.788C44.4328 14.6067 43.8941 14.4307 43.4781 14.26C43.0621 14.0893 42.6995 13.828 42.3901 13.476C42.0915 13.124 41.9421 12.66 41.9421 12.084C41.9421 11.6147 42.0808 11.188 42.3581 10.804C42.6355 10.4093 43.0301 10.1 43.5421 9.876C44.0648 9.652 44.6621 9.54 45.3341 9.54C46.3368 9.54 47.1421 9.796 47.7501 10.308C48.3688 10.8093 48.6995 11.4973 48.7421 12.372H46.9181C46.8861 11.9773 46.7261 11.6627 46.4381 11.428C46.1501 11.1933 45.7608 11.076 45.2701 11.076C44.7901 11.076 44.4221 11.1667 44.1661 11.348C43.9101 11.5293 43.7821 11.7693 43.7821 12.068C43.7821 12.3027 43.8675 12.5 44.0381 12.66C44.2088 12.82 44.4168 12.948 44.6621 13.044C44.9075 13.1293 45.2701 13.2413 45.7501 13.38C46.3901 13.5507 46.9128 13.7267 47.3181 13.908C47.7341 14.0787 48.0915 14.3347 48.3901 14.676C48.6888 15.0173 48.8435 15.4707 48.8541 16.036C48.8541 16.5373 48.7155 16.9853 48.4381 17.38C48.1608 17.7747 47.7661 18.084 47.2541 18.308C46.7528 18.532 46.1608 18.644 45.4781 18.644Z" fill="#3A3A3A"/>
<path d="M85.92 9.45001L79.4 15.97C78.63 16.74 77.37 16.74 76.6 15.97L70.08 9.45001" stroke="#292D32" stroke-width="1.5" stroke-miterlimit="10" stroke-linecap="round" stroke-linejoin="round"/>
</svg>
