<svg width="158" height="24" viewBox="0 0 158 24" fill="none" xmlns="http://www.w3.org/2000/svg">
<path d="M15 2V12C15 13.1 14.1 14 13 14H2V6C2 3.79 3.79 2 6 2H15Z" stroke="#292D32" stroke-width="1.5" stroke-linecap="round" stroke-linejoin="round"/>
<path d="M22 14V17C22 18.66 20.66 20 19 20H18C18 18.9 17.1 18 16 18C14.9 18 14 18.9 14 20H10C10 18.9 9.1 18 8 18C6.9 18 6 18.9 6 20H5C3.34 20 2 18.66 2 17V14H13C14.1 14 15 13.1 15 12V5H16.84C17.56 5 18.22 5.39001 18.58 6.01001L20.29 9H19C18.45 9 18 9.45 18 10V13C18 13.55 18.45 14 19 14H22Z" stroke="#292D32" stroke-width="1.5" stroke-linecap="round" stroke-linejoin="round"/>
<path d="M8 22C9.10457 22 10 21.1046 10 20C10 18.8954 9.10457 18 8 18C6.89543 18 6 18.8954 6 20C6 21.1046 6.89543 22 8 22Z" stroke="#292D32" stroke-width="1.5" stroke-linecap="round" stroke-linejoin="round"/>
<path d="M16 22C17.1046 22 18 21.1046 18 20C18 18.8954 17.1046 18 16 18C14.8954 18 14 18.8954 14 20C14 21.1046 14.8954 22 16 22Z" stroke="#292D32" stroke-width="1.5" stroke-linecap="round" stroke-linejoin="round"/>
<path d="M22 12V14H19C18.45 14 18 13.55 18 13V10C18 9.45 18.45 9 19 9H20.29L22 12Z" stroke="#292D32" stroke-width="1.5" stroke-linecap="round" stroke-linejoin="round"/>
<path d="M51.084 6.742V7.778H48.424V16.5H47.15V7.778H44.476V6.742H51.084ZM53.9262 10.074C54.1502 9.63533 54.4676 9.29467 54.8782 9.052C55.2982 8.80933 55.8069 8.688 56.4042 8.688V10.004H56.0682C54.6402 10.004 53.9262 10.7787 53.9262 12.328V16.5H52.6522V8.828H53.9262V10.074ZM57.3989 12.636C57.3989 11.852 57.5575 11.166 57.8749 10.578C58.1922 9.98067 58.6262 9.51867 59.1769 9.192C59.7369 8.86533 60.3575 8.702 61.0389 8.702C61.7109 8.702 62.2942 8.84667 62.7889 9.136C63.2835 9.42533 63.6522 9.78933 63.8949 10.228V8.828H65.1829V16.5H63.8949V15.072C63.6429 15.52 63.2649 15.8933 62.7609 16.192C62.2662 16.4813 61.6875 16.626 61.0249 16.626C60.3435 16.626 59.7275 16.458 59.1769 16.122C58.6262 15.786 58.1922 15.3147 57.8749 14.708C57.5575 14.1013 57.3989 13.4107 57.3989 12.636ZM63.8949 12.65C63.8949 12.0713 63.7782 11.5673 63.5449 11.138C63.3115 10.7087 62.9942 10.382 62.5929 10.158C62.2009 9.92467 61.7669 9.808 61.2909 9.808C60.8149 9.808 60.3809 9.92 59.9889 10.144C59.5969 10.368 59.2842 10.6947 59.0509 11.124C58.8175 11.5533 58.7009 12.0573 58.7009 12.636C58.7009 13.224 58.8175 13.7373 59.0509 14.176C59.2842 14.6053 59.5969 14.9367 59.9889 15.17C60.3809 15.394 60.8149 15.506 61.2909 15.506C61.7669 15.506 62.2009 15.394 62.5929 15.17C62.9942 14.9367 63.3115 14.6053 63.5449 14.176C63.7782 13.7373 63.8949 13.2287 63.8949 12.65ZM66.8598 12.65C66.8598 11.8567 67.0185 11.166 67.3358 10.578C67.6531 9.98067 68.0918 9.51867 68.6518 9.192C69.2211 8.86533 69.8698 8.702 70.5978 8.702C71.5405 8.702 72.3151 8.93067 72.9218 9.388C73.5378 9.84533 73.9438 10.48 74.1398 11.292H72.7678C72.6371 10.8253 72.3805 10.4567 71.9978 10.186C71.6245 9.91533 71.1578 9.78 70.5978 9.78C69.8698 9.78 69.2818 10.032 68.8338 10.536C68.3858 11.0307 68.1618 11.7353 68.1618 12.65C68.1618 13.574 68.3858 14.288 68.8338 14.792C69.2818 15.296 69.8698 15.548 70.5978 15.548C71.1578 15.548 71.6245 15.4173 71.9978 15.156C72.3711 14.8947 72.6278 14.5213 72.7678 14.036H74.1398C73.9345 14.82 73.5238 15.45 72.9078 15.926C72.2918 16.3927 71.5218 16.626 70.5978 16.626C69.8698 16.626 69.2211 16.4627 68.6518 16.136C68.0918 15.8093 67.6531 15.3473 67.3358 14.75C67.0185 14.1527 66.8598 13.4527 66.8598 12.65ZM80.1237 16.5L77.1137 13.112V16.5H75.8397V6.14H77.1137V12.23L80.0677 8.828H81.8457L78.2337 12.65L81.8597 16.5H80.1237ZM93.3852 8.828L88.7652 20.112H87.4492L88.9612 16.416L85.8672 8.828H87.2812L89.6892 15.044L92.0692 8.828H93.3852ZM98.0119 16.626C97.2932 16.626 96.6399 16.4627 96.0519 16.136C95.4732 15.8093 95.0159 15.3473 94.6799 14.75C94.3532 14.1433 94.1899 13.4433 94.1899 12.65C94.1899 11.866 94.3579 11.1753 94.6939 10.578C95.0392 9.97133 95.5059 9.50933 96.0939 9.192C96.6819 8.86533 97.3399 8.702 98.0679 8.702C98.7959 8.702 99.4539 8.86533 100.042 9.192C100.63 9.50933 101.092 9.96667 101.428 10.564C101.773 11.1613 101.946 11.8567 101.946 12.65C101.946 13.4433 101.769 14.1433 101.414 14.75C101.069 15.3473 100.597 15.8093 99.9999 16.136C99.4026 16.4627 98.7399 16.626 98.0119 16.626ZM98.0119 15.506C98.4692 15.506 98.8986 15.3987 99.2999 15.184C99.7012 14.9693 100.023 14.6473 100.266 14.218C100.518 13.7887 100.644 13.266 100.644 12.65C100.644 12.034 100.523 11.5113 100.28 11.082C100.037 10.6527 99.7199 10.3353 99.3279 10.13C98.9359 9.91533 98.5112 9.808 98.0539 9.808C97.5872 9.808 97.1579 9.91533 96.7659 10.13C96.3832 10.3353 96.0752 10.6527 95.8419 11.082C95.6086 11.5113 95.4919 12.034 95.4919 12.65C95.4919 13.2753 95.6039 13.8027 95.8279 14.232C96.0612 14.6613 96.3692 14.9833 96.7519 15.198C97.1346 15.4033 97.5546 15.506 98.0119 15.506ZM110.425 8.828V16.5H109.151V15.366C108.908 15.758 108.568 16.066 108.129 16.29C107.7 16.5047 107.224 16.612 106.701 16.612C106.104 16.612 105.567 16.4907 105.091 16.248C104.615 15.996 104.237 15.6227 103.957 15.128C103.686 14.6333 103.551 14.0313 103.551 13.322V8.828H104.811V13.154C104.811 13.91 105.002 14.4933 105.385 14.904C105.768 15.3053 106.29 15.506 106.953 15.506C107.634 15.506 108.171 15.296 108.563 14.876C108.955 14.456 109.151 13.8447 109.151 13.042V8.828H110.425ZM113.85 10.074C114.074 9.63533 114.391 9.29467 114.802 9.052C115.222 8.80933 115.731 8.688 116.328 8.688V10.004H115.992C114.564 10.004 113.85 10.7787 113.85 12.328V16.5H112.576V8.828H113.85V10.074ZM124.877 16.626C124.158 16.626 123.505 16.4627 122.917 16.136C122.338 15.8093 121.881 15.3473 121.545 14.75C121.218 14.1433 121.055 13.4433 121.055 12.65C121.055 11.866 121.223 11.1753 121.559 10.578C121.904 9.97133 122.371 9.50933 122.959 9.192C123.547 8.86533 124.205 8.702 124.933 8.702C125.661 8.702 126.319 8.86533 126.907 9.192C127.495 9.50933 127.957 9.96667 128.293 10.564C128.638 11.1613 128.811 11.8567 128.811 12.65C128.811 13.4433 128.634 14.1433 128.279 14.75C127.934 15.3473 127.462 15.8093 126.865 16.136C126.268 16.4627 125.605 16.626 124.877 16.626ZM124.877 15.506C125.334 15.506 125.764 15.3987 126.165 15.184C126.566 14.9693 126.888 14.6473 127.131 14.218C127.383 13.7887 127.509 13.266 127.509 12.65C127.509 12.034 127.388 11.5113 127.145 11.082C126.902 10.6527 126.585 10.3353 126.193 10.13C125.801 9.91533 125.376 9.808 124.919 9.808C124.452 9.808 124.023 9.91533 123.631 10.13C123.248 10.3353 122.94 10.6527 122.707 11.082C122.474 11.5113 122.357 12.034 122.357 12.65C122.357 13.2753 122.469 13.8027 122.693 14.232C122.926 14.6613 123.234 14.9833 123.617 15.198C124 15.4033 124.42 15.506 124.877 15.506ZM131.76 10.074C131.984 9.63533 132.302 9.29467 132.712 9.052C133.132 8.80933 133.641 8.688 134.238 8.688V10.004H133.902C132.474 10.004 131.76 10.7787 131.76 12.328V16.5H130.486V8.828H131.76V10.074ZM135.233 12.636C135.233 11.852 135.392 11.166 135.709 10.578C136.026 9.98067 136.46 9.51867 137.011 9.192C137.571 8.86533 138.196 8.702 138.887 8.702C139.484 8.702 140.04 8.842 140.553 9.122C141.066 9.39267 141.458 9.752 141.729 10.2V6.14H143.017V16.5H141.729V15.058C141.477 15.5153 141.104 15.8933 140.609 16.192C140.114 16.4813 139.536 16.626 138.873 16.626C138.192 16.626 137.571 16.458 137.011 16.122C136.46 15.786 136.026 15.3147 135.709 14.708C135.392 14.1013 135.233 13.4107 135.233 12.636ZM141.729 12.65C141.729 12.0713 141.612 11.5673 141.379 11.138C141.146 10.7087 140.828 10.382 140.427 10.158C140.035 9.92467 139.601 9.808 139.125 9.808C138.649 9.808 138.215 9.92 137.823 10.144C137.431 10.368 137.118 10.6947 136.885 11.124C136.652 11.5533 136.535 12.0573 136.535 12.636C136.535 13.224 136.652 13.7373 136.885 14.176C137.118 14.6053 137.431 14.9367 137.823 15.17C138.215 15.394 138.649 15.506 139.125 15.506C139.601 15.506 140.035 15.394 140.427 15.17C140.828 14.9367 141.146 14.6053 141.379 14.176C141.612 13.7373 141.729 13.2287 141.729 12.65ZM152.17 12.37C152.17 12.6127 152.156 12.8693 152.128 13.14H145.996C146.042 13.896 146.299 14.4887 146.766 14.918C147.242 15.338 147.816 15.548 148.488 15.548C149.038 15.548 149.496 15.422 149.86 15.17C150.233 14.9087 150.494 14.5633 150.644 14.134H152.016C151.81 14.8713 151.4 15.4733 150.784 15.94C150.168 16.3973 149.402 16.626 148.488 16.626C147.76 16.626 147.106 16.4627 146.528 16.136C145.958 15.8093 145.51 15.3473 145.184 14.75C144.857 14.1433 144.694 13.4433 144.694 12.65C144.694 11.8567 144.852 11.1613 145.17 10.564C145.487 9.96667 145.93 9.50933 146.5 9.192C147.078 8.86533 147.741 8.702 148.488 8.702C149.216 8.702 149.86 8.86067 150.42 9.178C150.98 9.49533 151.409 9.934 151.708 10.494C152.016 11.0447 152.17 11.67 152.17 12.37ZM150.854 12.104C150.854 11.6187 150.746 11.2033 150.532 10.858C150.317 10.5033 150.023 10.2373 149.65 10.06C149.286 9.87333 148.88 9.78 148.432 9.78C147.788 9.78 147.237 9.98533 146.78 10.396C146.332 10.8067 146.075 11.376 146.01 12.104H150.854ZM155.125 10.074C155.349 9.63533 155.667 9.29467 156.077 9.052C156.497 8.80933 157.006 8.688 157.603 8.688V10.004H157.267C155.839 10.004 155.125 10.7787 155.125 12.328V16.5H153.851V8.828H155.125V10.074Z" fill="#292D32"/>
</svg>
